<?xml version="1.0" encoding="UTF-8"?>
<svg width="103px" height="32px" viewBox="0 0 103 32" version="1.1" xmlns="http://www.w3.org/2000/svg" xmlns:xlink="http://www.w3.org/1999/xlink">
    <!-- Generator: Sketch 61 (89581) - https://sketch.com -->
    <title>header-logo</title>
    <desc>Created with Sketch.</desc>
    <defs>
        <path d="M44.624,19.952 C44.96,19.792 44.88,19.216 44.864,19.104 C44.832,18.944 44.832,18.496 44.848,18.32 L44.848,18.336 C44.864,18.224 44.944,17.504 44.96,16.816 C45.056,16.384 45.2,15.984 45.488,15.664 L45.568,15.552 L45.52,15.6 L45.632,15.472 C45.824,15.2 46.176,14.624 46.448,14.16 L46.816,13.52 L46.784,13.552 L46.896,13.424 C46.896,13.424 46.896,13.392 46.912,13.36 L46.96,13.296 L47.088,13.04 L47.232,12.768 C47.248,12.736 47.424,12.464 47.648,12.064 C47.9748571,11.4845714 48.3844898,10.712 48.5182041,10.502105 L48.64,10.32 L48.592,10.368 L48.688,10.24 L48.736,10.16 L48.784,10.128 L49.184,9.696 L49.168,9.696 L49.472,9.408 C49.536,9.376 49.584,9.36 49.616,9.328 L49.632,9.312 L49.712,9.248 C49.744,9.232 49.776,9.216 49.856,9.152 L49.84,9.168 C50.032,9.056 50.336,8.896 50.544,8.816 C50.848,8.688 51.216,8.592 51.552,8.544 C51.824,8.512 52.144,8.512 52.416,8.56 C52.688,8.592 52.912,8.672 53.104,8.752 L53.088,8.752 C53.216,8.8 53.376,8.864 53.44,8.912 C53.472,8.944 53.488,8.992 53.52,9.008 C53.536,9.04 53.616,9.072 53.648,9.088 L53.712,9.168 L53.984,9.44 C54,9.472 54,9.376 54,9.392 L54.016,9.472 L54.08,9.584 L54.256,9.84 L54.24,9.84 C54.384,10.16 54.816,10.256 55.104,10.112 C55.408,9.92 55.504,9.52 55.376,9.232 L55.328,9.184 C55.328,9.184 55.328,9.168 55.296,9.104 L55.264,9.056 C55.072,8.768 54.72,8.352 54.512,8.144 C54.224,7.888 53.872,7.664 53.504,7.536 L53.52,7.536 C53.04,7.328 52.496,7.232 52,7.232 C51.824,7.232 51.664,7.248 51.504,7.264 C50.768,7.344 50.048,7.568 49.376,7.952 C48.656,8.384 48.016,8.992 47.536,9.664 C47.328,9.952 47.088,10.288 46.96,10.56 L46.976,10.56 C46.976,10.56 46.352,11.616 46,12.208 C46,12.208 45.92,12.336 45.888,12.4 L45.712,12.672 L45.648,12.8 L45.5768889,12.864 C45.5662222,12.8746667 45.5573333,12.8853333 45.552,12.896 C45.52,12.928 45.472,13.008 45.424,13.12 C45.328,13.28 44.864,14.096 44.768,14.256 L44.768,14.272 C44.672,14.448 44.448,14.56 44.208,14.56 C44.016,14.56 43.808,14.48 43.664,14.208 L43.664,14.176 L43.504,13.968 L43.312,13.696 C43.216,13.584 42.944,12.944 42.944,12.928 C42.928,12.912 42.864,12.832 42.832,12.784 L42.576,12.352 C42.528,12.272 42.336,11.936 42.208,11.824 C42.064,11.664 41.904,11.52 41.6,11.6 C40.768,11.808 41.024,12.432 41.184,12.656 L41.168,12.608 L41.248,12.768 C41.376,12.96 41.568,13.296 41.632,13.456 C41.648,13.488 41.664,13.504 41.664,13.552 C41.76,13.68 41.952,13.92 42.176,14.336 C42.192,14.368 42.256,14.512 42.288,14.544 C42.4,14.656 43.12,15.984 43.12,15.984 L43.12,16.032 C43.28,16.224 43.36,16.48 43.408,16.672 C43.488,16.848 43.488,16.928 43.488,17.136 L43.488,17.312 C43.488,17.408 43.488,17.488 43.456,17.584 C43.424,17.68 43.456,17.904 43.472,17.984 L43.472,17.968 C43.488,18.08 43.488,18.144 43.488,18.176 L43.488,18.624 C43.488,18.704 43.472,18.736 43.472,18.784 C43.456,18.848 43.456,18.88 43.456,18.88 C43.472,18.944 43.488,19.136 43.456,19.168 C43.456,19.344 43.44,19.664 43.664,19.904 C43.84,20.112 44.224,20.16 44.624,19.952 Z M54.064,12.992 L53.936,12.832 L53.808,12.704 C53.648,12.544 53.488,12.4 53.312,12.304 C53.312,12.304 53.28,12.288 53.264,12.288 L53.168,12.224 L53.184,12.256 L53.056,12.16 C52.992,12.144 52.928,12.112 52.832,12.08 C52.64,12 52.448,11.92 52.256,11.904 C51.968,11.856 51.648,11.856 51.36,11.904 L51.376,11.904 L50.688,12.016 L50.48,12.096 L50.56,12.08 L50.416,12.112 C50.256,12.208 50.096,12.272 49.984,12.32 L49.808,12.416 L49.68,12.512 L49.696,12.496 C49.664,12.496 49.648,12.496 49.6,12.544 C49.28,12.672 49.184,12.832 49.024,13.04 L49.056,13.024 L48.912,13.184 L48.608,13.536 C48.56,13.6 48.544,13.632 48.512,13.68 C48.448,13.792 48.4,13.888 48.368,14 L48.32,14.064 C48.128,14.48 47.808,15.104 47.84,15.632 C47.84,15.632 47.856,15.68 47.856,15.696 L47.856,16.432 C47.856,16.656 47.904,17.168 47.92,17.328 L47.92,17.408 L47.92,17.408 C47.952,17.536 48,17.728 48.08,17.872 C48.08,17.904 48.08,17.936 48.112,17.952 C48.16,18.048 48.24,18.208 48.224,18.272 C48.272,18.512 48.464,18.688 48.624,18.848 L48.784,19.008 L48.96,19.168 C49.024,19.232 49.152,19.36 49.168,19.36 L49.216,19.408 C49.6,19.808 50.048,20.048 50.496,20.128 L50.576,20.128 C50.6826667,20.1386667 50.8248889,20.1422222 50.9552593,20.1434074 L51.6,20.144 C51.648,20.144 51.712,20.144 51.76,20.128 C51.824,20.128 51.824,20.144 51.872,20.128 C51.92,20.128 51.92,20.112 51.952,20.112 C52.032,20.112 52.128,20.112 52.176,20.096 C52.256,20.08 52.352,20.064 52.416,20.016 L52.4,20.016 L52.72,19.888 C52.944,19.824 53.184,19.744 53.328,19.6 L53.584,19.408 L53.568,19.44 C53.648,19.376 53.696,19.344 53.776,19.312 C53.92,19.104 54.096,18.912 54.288,18.784 C54.528,18.608 54.592,18.416 54.688,18.192 C54.688,18.176 54.72,18.128 54.72,18.112 C54.8,18.064 54.816,18.032 54.816,17.984 C54.96,17.744 55.248,17.104 55.296,15.776 C55.296,15.648 55.248,15.456 55.232,15.328 L55.2,15.232 C55.2,15.184 55.2,15.136 55.168,15.072 C55.152,15.056 55.152,15.04 55.152,15.008 C55.12,14.848 55.072,14.64 55.008,14.496 C55.008,14.464 55.008,14.448 54.992,14.416 C55.008,14.336 54.976,14.304 54.928,14.256 L54.912,14.176 C54.912,14.16 54.896,14.144 54.896,14.128 C54.864,14.048 54.816,13.904 54.736,13.776 C54.688,13.664 54.64,13.552 54.512,13.488 C54.464,13.376 54.4,13.344 54.368,13.296 L54.304,13.232 L54.224,13.168 C54.24,13.168 54.224,13.152 54.208,13.12 L54.064,12.992 Z M50.976,18.784 C50.912,18.768 50.752,18.736 50.768,18.736 L50.8,18.736 C50.736,18.72 50.304,18.496 50.256,18.416 C50.144,18.336 49.76,18.096 49.6,17.888 L49.536,17.808 L49.488,17.728 L49.408,17.6 L49.456,17.664 C49.424,17.616 49.392,17.504 49.36,17.472 C49.248,17.232 49.184,16.416 49.2,16.24 L49.2,15.872 C49.2,15.696 49.248,15.504 49.296,15.328 C49.328,15.232 49.68,14.368 49.824,14.224 C49.872,14.176 49.904,14.128 49.92,14.08 L49.92,14.112 C49.936,14.032 49.952,14 49.984,13.968 C50.128,13.904 50.176,13.84 50.176,13.792 C50.24,13.744 50.384,13.664 50.544,13.584 L50.528,13.584 C50.448,13.616 50.624,13.52 50.688,13.504 C50.896,13.36 51.088,13.344 51.28,13.328 C51.376,13.328 51.504,13.312 51.616,13.28 L51.632,13.28 C51.744,13.248 51.84,13.232 51.92,13.264 C52.192,13.296 52.688,13.52 52.816,13.6 L52.979,13.764 C53.165,13.953 53.396,14.196 53.456,14.304 C53.552,14.448 53.648,14.704 53.744,15.072 C53.84,15.344 53.904,16.288 53.904,16.672 C53.696,17.424 53.168,17.952 52.848,18.208 C52.736,18.272 52.64,18.32 52.592,18.4 L52.624,18.384 L52.608,18.4 C52.56,18.464 52.416,18.592 52.432,18.56 L52.48,18.496 C52.368,18.608 51.904,18.736 51.68,18.8 C51.648,18.8 51.6,18.816 51.584,18.816 C51.376,18.864 51.152,18.832 50.976,18.784 Z M63.232,13.072 C63.184,13.008 63.136,12.96 63.072,12.912 L63.088,12.944 L63.04,12.88 L62.848,12.736 L62.8,12.688 L62.816,12.688 C62.608,12.432 62.24,12.144 61.904,12.016 L61.92,12.016 C61.888,12 61.776,11.952 61.712,11.936 L61.568,11.904 C61.472,11.856 61.376,11.84 61.28,11.808 L61.296,11.808 L61.168,11.744 C61.056,11.728 60.624,11.712 60.4,11.712 C60.384,11.712 60.304,11.728 60.272,11.728 L59.6,11.856 L59.616,11.856 C59.056,11.968 57.856,12.768 57.616,13.12 L57.648,13.104 C57.488,13.248 57.248,13.792 57.04,14.192 C57.008,14.288 56.912,14.432 56.864,14.512 L56.816,14.8 C56.8,14.864 56.784,14.944 56.784,15.008 L56.736,15.152 C56.736,15.168 56.72,15.216 56.72,15.232 L56.72,15.376 L56.72,15.376 C56.64,15.632 56.704,16.368 56.752,16.624 L56.752,16.608 C56.8,16.784 56.8,16.88 56.816,17.024 C56.816,17.072 56.816,17.12 56.848,17.152 L56.848,17.168 C56.848,17.216 56.848,17.216 56.864,17.28 L56.864,17.36 C56.912,17.824 57.12,18.16 57.184,18.256 C57.392,18.64 57.712,18.912 57.92,19.104 L57.92,19.088 L57.984,19.152 C58.016,19.168 58.064,19.264 58.064,19.264 C58.208,19.36 58.464,19.504 58.688,19.632 C58.72,19.648 58.816,19.744 58.816,19.744 L58.944,19.808 C58.944,19.808 58.96,19.824 58.992,19.824 C59.056,19.84 59.152,19.904 59.248,19.952 L59.264,19.952 C59.408,20.016 59.984,20.128 60.496,20.128 C60.88,20.128 61.44,20 61.776,19.84 C62.048,19.744 62.368,19.504 62.384,19.488 L62.368,19.504 C63.36,18.832 63.616,17.904 63.664,17.568 C63.696,17.376 63.712,16.992 63.712,16.64 C63.712,16.416 63.712,16.144 63.68,15.984 C63.664,15.936 63.616,15.76 63.504,15.584 C63.36,15.328 63.008,15.264 62.736,15.184 C62.672,15.168 62.592,15.168 62.464,15.168 C61.936,15.104 61.392,15.136 61.264,15.136 C60.592,15.168 60.528,16 60.752,16.224 L60.736,16.224 C60.928,16.448 61.024,16.464 61.216,16.432 C61.28,16.432 61.52,16.432 61.68,16.448 C62.096,16.496 62.304,16.832 62.304,17.232 C62.304,17.6 62.144,18 61.872,18.224 C61.472,18.56 60.96,18.88 60.544,18.88 L60.464,18.88 C60.448,18.88 60.4,18.864 60.336,18.848 C60.272,18.832 60.192,18.832 60.112,18.832 C60,18.832 59.936,18.816 59.888,18.8 C59.888,18.8 59.568,18.688 59.472,18.64 C59.456,18.624 59.408,18.624 59.392,18.608 L59.184,18.48 L59.184,18.464 C59.056,18.32 58.96,18.224 58.912,18.192 C58.848,18.16 58.72,18.032 58.672,17.968 L58.496,17.808 C58.464,17.776 58.448,17.76 58.368,17.616 C58.288,17.504 58.192,17.04 58.144,16.832 C58.144,16.816 58.128,16.768 58.128,16.752 C58.112,16.64 58.08,16.416 58.096,16.256 C58.096,16.176 58.096,16.064 58.08,16 C58.08,15.936 58.064,15.936 58.064,15.888 L58.064,15.744 C58.064,15.712 58.064,15.552 58.08,15.488 L58.112,15.36 L58.112,15.376 C58.128,15.328 58.144,15.312 58.144,15.28 C58.224,14.992 58.256,14.848 58.272,14.768 L58.448,14.4 L58.448,14.416 C58.544,14.224 58.608,14.08 58.992,13.776 C59.312,13.376 59.728,13.28 60.128,13.168 L60.08,13.168 L60.256,13.152 C60.336,13.12 60.432,13.136 60.544,13.136 L60.64,13.136 C60.672,13.136 60.768,13.168 60.8,13.168 C61.008,13.184 61.216,13.216 61.392,13.312 C61.392,13.312 61.424,13.328 61.456,13.344 L61.376,13.312 C61.408,13.344 61.344,13.36 61.536,13.408 L61.52,13.408 C61.632,13.456 61.808,13.552 61.92,13.712 C62.064,13.904 62.224,14.112 62.48,14.24 L62.464,14.24 C62.816,14.432 63.104,14.336 63.36,14.032 L63.36,14.048 C63.552,13.808 63.424,13.344 63.344,13.248 L63.376,13.264 C63.3493333,13.224 63.3004444,13.1617778 63.3034074,13.1699259 L63.311,13.184 L63.2805926,13.1585185 C63.2604444,13.136 63.2426667,13.104 63.232,13.072 Z M71.008,19.984 C71.328,19.968 71.616,19.824 71.664,19.68 L71.664,19.696 C71.824,19.36 71.728,19.056 71.664,18.912 L71.664,18.928 C71.632,18.848 71.536,18.656 71.536,18.656 C71.504,18.608 71.36,18.24 71.328,18.112 C71.296,17.968 70.736,16.192 70.624,15.872 C70.496,15.504 70.432,15.312 70.4,15.264 L70.4,15.28 L70.32,15.104 L70.32,15.072 L70.304,15.056 C70.016,14.192 69.792,13.664 69.696,13.44 C69.664,13.392 69.664,13.344 69.648,13.312 L69.568,13.12 L69.536,13.088 C69.504,13.008 69.456,12.912 69.376,12.8 L69.392,12.8 L69.024,12.16 C68.976,12.08 68.96,12.016 68.944,11.952 C68.864,11.824 68.832,11.728 68.672,11.648 C68.304,11.504 68.304,11.584 68.192,11.584 L68.08,11.584 C67.52,11.584 67.264,12.24 67.12,12.592 L67.12,12.576 L67.056,12.704 L66.976,12.96 L66.992,12.928 C66.976,12.992 66.96,13.024 66.912,13.12 L66.912,13.136 L66.912,13.136 C66.896,13.184 66.832,13.312 66.816,13.36 C66.688,13.776 66.512,14.256 66.4,14.592 L66.291,14.964 L66.27375,14.994 C66.249,15.045 66.24,15.096 66.24,15.12 C66.112,15.44 66.064,15.6 66.032,15.696 C66.032,15.712 66.016,15.728 65.984,15.76 C65.952,15.84 65.952,15.84 65.952,15.904 C65.824,16.272 65.296,17.968 65.28,18.08 C65.264,18.224 65.12,18.688 65.072,18.752 C65.072,18.8 65.072,18.816 65.04,18.848 C65.024,18.88 64.768,19.36 64.928,19.68 L65.008,19.84 C65.184,19.92 65.344,19.984 65.6,19.984 C65.824,19.984 66,19.904 66.128,19.76 C66.208,19.632 66.384,19.04 66.432,18.816 C66.544,18.592 66.592,18.448 66.624,18.24 C66.816,17.792 67.296,17.456 67.92,17.632 C68.176,17.68 68.288,17.712 68.432,17.776 C68.512,17.808 68.624,17.84 68.88,17.904 L68.864,17.904 L69.456,18.064 L69.44,18.064 C69.616,18.144 69.952,18.416 70.08,18.832 L70.064,18.8 C70.08,18.848 70.128,19.008 70.176,19.104 C70.192,19.136 70.192,19.152 70.208,19.152 C70.208,19.2 70.224,19.248 70.224,19.264 C70.224,19.28 70.24,19.296 70.24,19.296 C70.256,19.424 70.32,19.648 70.368,19.696 C70.48,19.872 70.8,20 71.008,19.984 Z M69.296,16.32 C69.392,16.672 68.928,16.752 68.688,16.656 L68.496,16.592 L68.304,16.56 L68.336,16.56 C68.288,16.544 68.128,16.464 67.952,16.384 C67.712,16.288 67.536,16 67.52,15.712 C67.552,15.648 67.536,15.632 67.536,15.584 L67.616,15.376 C67.632,15.216 67.696,15.088 67.728,14.928 C67.776,14.768 67.808,14.608 67.856,14.528 C68,14.192 68.144,14.08 68.256,14.08 C68.384,14.08 68.576,14.272 68.672,14.48 C68.896,15.184 68.992,15.456 69.056,15.584 C69.072,15.632 69.088,15.648 69.088,15.68 L69.136,15.856 L69.136,15.84 C69.136,15.888 69.152,15.936 69.152,15.936 C69.2,15.984 69.2,16 69.2,16.016 L69.2,16.032 L69.28,16.207 L69.28,16.161 L69.296,16.32 Z M83.184,24.16 C83.68,24.16 84.192,24.08 84.672,23.872 L84.656,23.872 C85.024,23.744 85.344,23.536 85.664,23.28 C85.952,23.04 86.208,22.736 86.4,22.448 L86.4,22.464 L86.528,22.24 C86.688,21.936 86.64,21.504 86.304,21.328 L86.288,21.328 C86,21.184 85.616,21.28 85.44,21.568 L85.296,21.824 L85.2,21.92 C85.184,21.952 85.168,21.952 85.168,21.968 C85.072,22.096 85.008,22.16 84.88,22.272 L84.816,22.352 L84.672,22.448 C84.528,22.528 84.4,22.608 84.272,22.656 C84.064,22.736 83.824,22.816 83.6,22.832 C83.472,22.848 83.264,22.864 83.152,22.864 C83.024,22.864 82.832,22.848 82.704,22.832 C82.368,22.784 82.016,22.688 81.712,22.56 C81.488,22.48 81.216,22.32 81.008,22.176 L80.88,22.112 L80.816,22.08 C80.672,21.952 80.48,21.776 80.352,21.648 C80.24,21.552 80.16,21.456 80.064,21.344 L79.968,21.232 L80.016,21.28 L79.92,21.152 L79.84,21.056 C79.856,21.056 79.776,20.928 79.744,20.88 C79.536,20.576 79.376,20.288 79.2,19.952 L79.008,19.552 C79.008,19.552 78.928,19.36 78.896,19.264 C78.864,19.216 78.848,19.168 78.832,19.136 L78.544,18.544 C78.368,18.192 78.256,17.936 78.112,17.504 C78.048,17.328 78,17.136 78,16.992 C78,16.736 78.128,16.512 78.272,16.288 C78.496,15.92 78.8,15.472 78.864,14.592 C78.896,14.144 78.848,13.696 78.72,13.152 C78.304,12.048 77.104,11.68 76.176,11.648 C76.128,11.632 75.904,11.632 75.824,11.632 C75.648,11.584 75.232,11.6 74.928,11.616 L74.528,11.616 C74.352,11.616 73.776,11.744 73.52,12.064 C73.392,12.224 73.408,12.336 73.392,12.432 C73.392,12.448 73.376,12.496 73.376,12.496 C73.376,12.544 73.36,12.608 73.36,12.624 C73.328,12.736 73.312,13.408 73.328,13.712 L73.328,14.016 C73.328,14.112 73.344,14.192 73.344,14.352 C73.344,14.544 73.344,14.816 73.328,15.024 C73.312,15.152 73.328,15.264 73.328,15.392 L73.328,15.744 C73.328,15.792 73.312,15.84 73.312,15.888 L73.312,16.144 C73.344,16.4 73.312,16.896 73.28,17.28 C73.264,17.504 73.264,17.696 73.264,17.76 L73.264,18.08 C73.264,18.24 73.264,18.464 73.28,18.56 L73.28,18.672 C73.28,18.832 73.28,19.024 73.296,19.168 L73.296,19.728 C73.36,19.92 73.664,20.16 73.952,20.16 C74.16,20.16 74.432,20.032 74.544,19.776 C74.576,19.728 74.576,19.648 74.576,19.648 C74.64,19.52 74.608,19.36 74.608,19.28 C74.608,18.816 74.624,18.736 74.704,18.496 C74.704,18.512 74.704,18.496 74.72,18.496 C74.944,17.968 75.52,17.728 75.632,17.68 C76.08,17.488 76.768,17.936 76.944,18.336 C77.248,18.832 77.312,18.992 77.376,19.168 L77.664,19.792 L77.648,19.696 L77.68,19.808 L77.792,19.936 L77.744,19.888 C78.016,20.496 78.352,21.12 78.72,21.664 C79.2,22.352 79.824,22.96 80.544,23.408 C81.2,23.792 81.904,24.032 82.64,24.128 C82.816,24.144 82.992,24.16 83.184,24.16 Z M75.984,16.112 C75.328,16.064 74.736,15.888 74.688,15.184 C74.672,14.896 74.64,14.624 74.64,14.352 C74.64,13.504 74.832,12.832 75.76,12.912 C75.888,12.912 76.048,12.928 76.192,12.928 L76.384,12.976 C76.544,13.008 76.768,13.072 76.912,13.184 C77.28,13.52 77.472,13.968 77.472,14.352 C77.472,15.28 76.688,16.16 75.984,16.112 Z M80.656,18.416 L80.752,18.608 C80.8,18.72 80.864,18.784 80.944,18.864 L80.928,18.864 L81.024,19.024 C81.088,19.152 81.216,19.312 81.344,19.376 L81.424,19.44 C81.632,19.6 82,19.872 82.512,20.064 C82.992,20.24 83.408,20.272 83.952,20.208 C83.952,20.192 83.984,20.176 83.968,20.176 L84.032,20.16 L84.032,20.16 C84.8,19.904 85.328,19.552 85.76,19.136 L85.808,19.056 C85.84,18.976 85.872,18.944 85.92,18.896 C86.224,18.432 86.368,17.744 86.448,17.168 L86.448,16.944 C86.448,16.848 86.432,16.72 86.432,16.624 C86.416,16.512 86.416,16.448 86.416,16.352 C86.416,16.288 86.432,16.24 86.432,16.16 C86.448,16.096 86.448,16.016 86.448,15.936 C86.48,15.808 86.496,15.6 86.48,15.424 C86.448,15.296 86.48,14.944 86.512,14.64 C86.528,14.48 86.544,14.352 86.544,14.224 C86.544,14.048 86.544,13.792 86.528,13.6 L86.528,13.28 C86.544,13.136 86.56,12.896 86.528,12.736 C86.512,12.64 86.512,12.528 86.512,12.464 C86.512,12.4 86.496,12.304 86.496,12.24 C86.416,12.048 86.192,11.824 85.968,11.808 C85.856,11.792 85.424,11.84 85.248,12.08 C85.12,12.208 85.056,12.432 85.056,12.736 C85.056,12.88 85.072,13.104 85.104,13.296 L85.104,13.792 C85.104,13.84 85.088,14.048 85.088,14.288 C85.072,14.8 85.072,15.504 85.024,15.536 L85.024,15.888 C85.04,16.64 84.976,17.952 84.432,18.528 C84.208,18.704 83.936,18.8 83.664,18.8 C83.232,18.8 82.768,18.608 82.416,18.336 L82.432,18.336 C82.272,18.192 82,17.744 81.984,17.696 C81.872,17.552 81.664,16.784 81.616,16.304 C81.632,16.032 81.616,15.712 81.616,15.472 C81.6,15.296 81.616,15.088 81.632,14.896 C81.616,14.64 81.632,14.288 81.648,13.984 C81.664,13.712 81.68,13.36 81.664,13.136 C81.664,13.088 81.68,13.04 81.68,12.976 C81.68,12.944 81.68,12.912 81.696,12.848 L81.690368,12.784256 C81.68576,12.73472 81.68,12.6656 81.68,12.608 L81.68,12.4 C81.68,12.272 81.6,12.064 81.472,11.968 C81.136,11.712 80.672,11.84 80.608,11.872 C80.432,11.952 80.288,12.208 80.272,12.336 C80.272,12.368 80.2648889,12.4 80.2601481,12.4272593 L80.256,12.46 L80.256,12.448 C80.24,12.496 80.24,12.576 80.24,12.784 C80.208,12.832 80.208,12.896 80.208,12.928 L80.208,13.856 L80.224,14.016 L80.224,14.016 C80.24,14.096 80.224,14.176 80.208,14.24 C80.208,14.304 80.192,14.432 80.192,14.496 C80.176,14.672 80.16,14.88 80.176,15.072 L80.176,15.088 C80.192,15.2 80.208,15.488 80.208,15.6 C80.1952,15.7024 80.19264,15.88672 80.192128,16.046464 L80.192,16.16 C80.192,16.368 80.192,16.608 80.208,16.736 C80.256,17.28 80.512,18.016 80.656,18.416 Z M89.376,20.144 C89.6378182,19.8676364 89.6351736,19.4193719 89.6325289,19.3161112 L89.6323732,18.256793 C89.6333061,18.0669388 89.6365714,17.9085714 89.648,17.84 C89.776,16.96 90.032,16.784 90.144,16.72 L90.176,16.704 C90.24,16.64 90.288,16.64 90.352,16.624 L90.32,16.624 L90.384,16.608 L90.384,16.608 C90.704,16.544 91.024,16.736 91.216,17.024 L91.328,17.152 L91.376,17.2 C91.376,17.248 91.408,17.296 91.456,17.344 L91.44,17.328 C91.488,17.44 91.552,17.52 91.648,17.6 L91.648,17.616 C91.712,17.696 91.76,17.776 91.776,17.84 C91.808,17.84 91.84,17.872 91.856,17.904 C91.968,18.064 92.032,18.16 92.096,18.336 C92.208,18.448 92.24,18.512 92.272,18.592 L92.352,18.704 L92.32,18.688 C92.352,18.736 92.32,18.72 92.368,18.784 C92.4,18.832 92.528,18.944 92.576,18.992 C92.624,19.024 92.624,19.088 92.624,19.12 C92.656,19.152 92.672,19.168 92.672,19.168 C92.768,19.28 92.864,19.424 92.944,19.536 L93.088,19.776 C93.456,20.144 93.952,20.256 94.192,20.128 C94.56,19.92 94.576,19.408 94.48,19.264 C94.416,19.2 94.384,19.12 94.352,19.056 L94.352,19.072 C94.336,19.024 94.016,18.624 94,18.608 L94.032,18.624 L93.952,18.528 L93.824,18.4 L93.76,18.32 L93.792,18.336 L93.712,18.24 L93.616,18.112 C93.6,18.112 93.6,18.096 93.568,18.032 L93.408,17.84 C93.376,17.792 93.296,17.616 93.312,17.664 L93.328,17.728 L93.296,17.616 C93.264,17.568 93.136,17.424 93.136,17.424 L93.152,17.424 C93.072,17.328 93.04,17.264 93.008,17.184 L93.024,17.264 L92.992,17.168 C92.928,17.056 92.848,16.928 92.768,16.832 L92.704,16.752 L92.672,16.6951111 C92.6666667,16.6844444 92.6613333,16.672 92.656,16.656 L92.544,16.496 L92.448,16.352 L92.368,16.192 L92.304,16.08 L92.304,16.096 C92.304,16.096 92.224,15.856 92.224,15.52 C92.224,15.248 92.288,14.896 92.544,14.656 C92.608,14.592 92.672,14.496 92.72,14.4 C92.752,14.32 92.8,14.224 92.848,14.192 L92.88,14.16 L92.944,14.16 L93.024,14.08 C93.088,14.016 93.184,13.904 93.264,13.84 L93.392,13.664 C93.44,13.584 93.52,13.504 93.584,13.44 C93.648,13.392 93.808,13.2 93.904,13.12 C93.92,13.088 93.984,13.04 94.032,13.008 C94.112,12.944 94.16,12.928 94.16,12.816 C94.24,12.624 94.32,12.24 93.888,12.016 C93.632,11.872 93.28,11.936 93.104,12.016 L93.12,12.016 C92.96,12.08 92.88,12.192 92.8,12.304 L92.832,12.288 L92.768,12.368 L91.728,13.408 L91.6,13.568 L91.632,13.552 C91.584,13.6 91.488,13.68 91.488,13.68 L91.382,13.816 L91.296,13.888 C91.248,13.92 91.216,13.968 91.2,13.984 L91.216,13.952 C91.152,14 91.072,14.08 91.04,14.128 C91.008,14.16 91.024,14.16 90.976,14.16 L90.848,14.224 C90.608,14.4 90.368,14.48 90.176,14.48 C89.936,14.48 89.76,14.32 89.712,14.032 L89.712,13.216 C89.728,13.168 89.728,13.088 89.712,13.024 L89.712,12.832 C89.712,12.72 89.712,12.192 89.552,12.08 L89.568,12.08 C89.44,11.984 89.328,11.872 89.04,11.872 C88.784,11.872 88.576,12.016 88.48,12.128 C88.304,12.448 88.336,12.608 88.336,12.688 C88.336,12.768 88.32,12.864 88.32,12.96 L88.32,13.168 C88.336,13.248 88.336,13.312 88.336,13.376 L88.336,13.84 C88.368,13.84 88.352,14.608 88.336,15.168 C88.336,15.424 88.32,15.632 88.32,15.728 L88.32,16.096 C88.32,16.2605714 88.3082449,16.4486531 88.3048863,16.5191837 L88.304,17.072 C88.304,17.12 88.288,17.2 88.288,17.264 C88.272,17.456 88.256,17.712 88.256,17.888 L88.24,18.096 L88.24,18.096 L88.24,18.256 C88.224,18.352 88.224,18.512 88.224,18.64 L88.208,18.88 L88.208,18.88 C88.208,19.088 88.224,19.184 88.224,19.28 L88.224,19.632 C88.256,19.952 88.416,20.128 88.48,20.16 C88.608,20.224 88.96,20.336 89.376,20.144 Z M101.904,19.984 C102.224,19.968 102.512,19.824 102.56,19.68 L102.56,19.696 C102.72,19.36 102.624,19.056 102.56,18.912 L102.56,18.928 C102.528,18.848 102.432,18.656 102.432,18.656 C102.4,18.608 102.256,18.24 102.224,18.112 C102.192,17.968 101.632,16.192 101.52,15.872 C101.392,15.504 101.328,15.312 101.296,15.264 L101.296,15.28 L101.216,15.104 L101.216,15.072 L101.2,15.056 C100.912,14.192 100.688,13.664 100.592,13.44 C100.56,13.392 100.56,13.344 100.544,13.312 L100.464,13.12 L100.432,13.088 C100.4,13.008 100.352,12.912 100.272,12.8 L100.288,12.8 L99.92,12.16 C99.872,12.08 99.856,12.016 99.84,11.952 C99.76,11.824 99.728,11.728 99.568,11.648 C99.2,11.504 99.2,11.584 99.088,11.584 L98.976,11.584 C98.416,11.584 98.16,12.24 98.016,12.592 L98.016,12.576 L97.952,12.704 L97.872,12.96 L97.888,12.928 C97.872,12.992 97.856,13.024 97.808,13.12 L97.808,13.136 L97.808,13.136 C97.792,13.184 97.728,13.312 97.712,13.36 C97.584,13.776 97.408,14.256 97.296,14.592 L97.187,14.964 L97.16975,14.994 C97.145,15.045 97.136,15.096 97.136,15.12 C97.008,15.44 96.96,15.6 96.928,15.696 C96.928,15.712 96.912,15.728 96.88,15.76 C96.848,15.84 96.848,15.84 96.848,15.904 C96.72,16.272 96.192,17.968 96.176,18.08 C96.16,18.224 96.016,18.688 95.968,18.752 C95.968,18.8 95.968,18.816 95.936,18.848 C95.92,18.88 95.664,19.36 95.824,19.68 L95.904,19.84 C96.08,19.92 96.24,19.984 96.496,19.984 C96.72,19.984 96.896,19.904 97.024,19.76 C97.104,19.632 97.28,19.04 97.328,18.816 C97.44,18.592 97.488,18.448 97.52,18.24 C97.712,17.792 98.192,17.456 98.816,17.632 C99.072,17.68 99.184,17.712 99.328,17.776 C99.408,17.808 99.52,17.84 99.776,17.904 L99.76,17.904 L100.352,18.064 L100.336,18.064 C100.512,18.144 100.848,18.416 100.976,18.832 L100.96,18.8 C100.976,18.848 101.024,19.008 101.072,19.104 C101.088,19.136 101.088,19.152 101.104,19.152 C101.104,19.2 101.12,19.248 101.12,19.264 C101.12,19.28 101.136,19.296 101.136,19.296 C101.152,19.424 101.216,19.648 101.264,19.696 C101.376,19.872 101.696,20 101.904,19.984 Z M100.192,16.32 C100.288,16.672 99.824,16.752 99.584,16.656 L99.392,16.592 L99.2,16.56 L99.232,16.56 C99.184,16.544 99.024,16.464 98.848,16.384 C98.608,16.288 98.432,16 98.416,15.712 C98.448,15.648 98.432,15.632 98.432,15.584 L98.512,15.376 C98.528,15.216 98.592,15.088 98.624,14.928 C98.672,14.768 98.704,14.608 98.752,14.528 C98.896,14.192 99.04,14.08 99.152,14.08 C99.28,14.08 99.472,14.272 99.568,14.48 C99.792,15.184 99.888,15.456 99.952,15.584 C99.968,15.632 99.984,15.648 99.984,15.68 L100.032,15.856 L100.032,15.84 C100.032,15.888 100.048,15.936 100.048,15.936 C100.096,15.984 100.096,16 100.096,16.016 L100.096,16.032 L100.176,16.207 L100.176,16.161 L100.192,16.32 Z" id="path-1"></path>
    </defs>
    <g id="Page-1" stroke="none" stroke-width="1" fill="none" fill-rule="evenodd">
        <g id="Artboard" transform="translate(-13.000000, -52.000000)">
            <g id="header-logo" transform="translate(13.000000, 52.000000)">
                <g id="Group" stroke="#FFFFFF">
                    <path d="M15.8337662,31.465368 C15.9486678,31.465368 15.9980692,31.465368 16.0581557,31.4637598 C16.1334653,31.4620862 16.1989313,31.458831 16.311787,31.4515645 C19.1732329,31.4917722 21.6800054,30.8391214 23.985587,29.4584533 C27.0761091,27.6081624 29.2572821,24.8433191 30.4661406,21.2368911 C32.3924167,15.4850037 31.5036327,10.2090305 27.9269661,5.95009019 L27.9102599,5.93336076 C25.8335529,3.82272062 24.4034344,2.74595825 22.4037256,1.77988251 C20.7204667,0.964761059 18.2065131,0.494195823 15.7103067,0.534565734 C12.9294959,0.579855813 10.3590325,1.19123627 8.33725627,2.5994541 C5.80084264,4.26910767 3.66581425,6.2809289 2.3677853,8.58535824 C0.678796532,11.5746003 0.165142296,14.9802435 0.805236722,19.022968 C1.3308949,22.2634178 3.67710458,25.943821 6.82281746,28.4118146 L6.76893575,28.3669548 C9.54823605,30.3742272 12.7498497,31.465368 15.8337662,31.465368 Z" id="Path"></path>
                    <path d="M21.1380293,26.627998 C20.2585922,26.627998 18.717698,26.5277079 17.1016383,25.9336823 C16.9663403,25.87968 16.8911747,25.7253876 16.9437906,25.5865245 C16.9964065,25.4476613 17.1467377,25.3705151 17.2820357,25.4245175 C19.5971352,26.2731255 21.822036,26.0648308 21.8445856,26.0648308 C21.8521022,26.0648308 21.8596188,26.0648308 21.8671353,26.0648308 C22.6037579,26.0648308 23.1599831,25.8565361 23.4681619,25.4708052 C23.7312414,25.1390766 23.8214401,24.6684848 23.7237248,24.1516054 C23.6560758,23.8738791 23.5057447,23.6655844 23.2501818,23.5267213 C21.9874002,22.8169764 18.6425325,23.8044476 16.0643535,24.7533456 C11.0658432,26.5971395 8.4049821,26.6897149 7.69842576,25.0465012 C7.69842576,25.0387865 7.6909092,25.0310719 7.6909092,25.0310719 C7.45037939,24.321327 7.63829331,23.8507353 7.8487569,23.5807236 C8.38243243,22.8709787 9.65273053,22.5855378 11.5093201,22.7552594 C13.8995851,22.9789834 15.5006117,22.9944126 16.0869031,22.3618139 C16.4025985,22.0223706 16.4777641,21.4669181 16.3424661,20.5025908 C16.2297177,19.9008505 16.0944197,19.3685418 15.9666382,18.859377 C15.6208766,17.463031 15.342764,16.3598406 15.801274,15.2875086 C16.53038,13.4437147 18.4846848,12.325095 19.7775325,11.5844916 L19.8075988,11.5690624 C19.8075988,11.5690624 19.8151153,11.5690624 19.8151153,11.5613478 C19.8902809,11.5227747 19.972963,11.476487 20.0706782,11.4301992 C20.7622015,11.0753268 22.3932943,10.2575772 22.5060426,9.47840072 C22.5361089,9.27010602 22.4534267,9.07724055 22.2429632,8.86894585 C21.7619035,8.45235644 20.8448836,8.15148632 19.9504133,7.85061619 C19.3340557,7.64232149 18.7477642,7.44945602 18.3042874,7.21801746 C16.9513072,6.50827254 16.3349495,5.72138144 16.0568369,4.89591725 C15.5908104,6.15340009 14.5535256,7.00972276 12.8623003,7.58060454 C12.8623003,7.58060454 12.8547837,7.58060454 12.8547837,7.58060454 C12.5541215,7.67317996 12.2684923,7.75032615 11.9828631,7.82747233 C10.9530949,8.1051986 10.0661412,8.34435178 9.6226643,8.96923589 C9.41220071,9.36268144 9.29945236,9.81784394 10.239022,10.5584473 C11.103426,11.1601876 11.9903797,11.6384939 13.3358434,12.3636681 L13.3884593,12.3945266 C14.2303136,12.8728329 14.9143203,13.0348399 15.4329627,12.8651183 C15.8313402,12.7416844 16.1545522,12.4176704 16.4176316,11.8776471 C16.6055456,11.4996308 16.7709098,11.0444683 16.9137244,10.5121596 C16.9663403,10.3192942 17.0114396,10.1341433 17.0415059,9.9644217 C17.191837,9.18524522 17.1392211,8.65293653 16.8836582,8.37521026 C16.665678,8.1437717 16.2673005,8.06662551 15.7035587,8.15920094 C15.207466,8.23634712 14.8992872,8.41378335 14.7790223,8.69150962 C14.6286911,9.03866746 14.6737905,9.78698547 15.7185919,11.3607677 C15.801274,11.4842016 15.7712078,11.6539232 15.6509428,11.738784 C15.5306779,11.8236448 15.3653137,11.7927863 15.2826316,11.6693524 C14.3205123,10.2190041 14.0048169,9.1775306 14.2979626,8.48321492 C14.4933931,8.02805242 14.93687,7.73489691 15.6208766,7.62689225 C16.3650157,7.51117297 16.9137244,7.63460687 17.259486,8.00490856 C17.650347,8.42149797 17.7405456,9.10038441 17.5526317,10.0724264 C17.5150489,10.2575772 17.4699496,10.4504427 17.4098171,10.6587374 C17.2519694,11.2219045 17.0715721,11.7079255 16.8761416,12.1168003 C16.5454131,12.7956867 16.1169694,13.2045615 15.5757773,13.3742831 C14.9068037,13.5825778 14.1025321,13.4205709 13.1253798,12.8574037 L13.0802804,12.8342598 C11.7197836,12.1013711 10.8177968,11.6153501 9.93084313,10.990466 C9.92332657,10.990466 9.92332657,10.9827514 9.91581002,10.9827514 C8.6830947,10.0107094 8.86349206,9.24696216 9.15663778,8.683795 C9.16415434,8.67608038 9.16415434,8.66836577 9.17167089,8.65293653 C9.7278961,7.85061619 10.7050485,7.58831916 11.8400486,7.28744903 C12.1181612,7.21030284 12.4037903,7.13315665 12.6894195,7.04829585 C14.8241216,6.3231217 15.7636912,5.17364352 15.8163071,3.19098653 C15.8238237,3.04440877 15.936572,2.92868949 16.0793866,2.92868949 C16.0793866,2.92868949 16.0793866,2.92868949 16.0793866,2.92868949 C16.2222012,2.92868949 16.3349495,3.04440877 16.3424661,3.19098653 C16.3650157,4.54875941 16.5378966,5.67509373 18.5297841,6.71656725 C18.9356782,6.92486195 19.4994199,7.11772742 20.1007445,7.3183075 C21.0403141,7.63460687 22.0099499,7.95862085 22.5736917,8.43692721 C22.5812082,8.43692721 22.5812082,8.44464182 22.5887248,8.45235644 C22.9269698,8.78408505 23.0697844,9.15438674 23.009652,9.54011767 C22.8668374,10.5121596 21.5288903,11.2604776 20.2886584,11.8930764 C20.1984597,11.9393641 20.1157776,11.9779372 20.040612,12.0165103 L20.0180623,12.0319395 C18.717698,12.7725429 16.9287575,13.7985872 16.2673005,15.4726594 C15.8839561,16.3829844 16.1244859,17.3550264 16.462731,18.7050846 C16.5905124,19.2065348 16.7258105,19.769702 16.8460754,20.3868715 C16.8460754,20.3945861 16.8460754,20.3945861 16.8460754,20.4023007 C17.0039231,21.5517789 16.8836582,22.2460946 16.4476979,22.7166863 C15.7110753,23.511292 14.0574328,23.5190067 11.441671,23.2798535 C9.81809478,23.1332757 8.65302847,23.3569997 8.24713441,23.897023 C8.06673704,24.1438908 8.03667082,24.4447609 8.16445228,24.8304918 C8.72819404,26.1111185 11.3214061,25.9105384 15.868923,24.2364662 C19.8226319,22.7784033 22.3106122,22.3926723 23.483195,23.0484149 C23.874056,23.2644242 24.1221024,23.5961528 24.2198176,24.0358861 C24.2198176,24.0358861 24.2198176,24.0436007 24.2198176,24.0436007 C24.3475991,24.7302018 24.2198176,25.3628005 23.8515063,25.817963 C23.5658772,26.1805501 22.9871023,26.6048541 21.8596188,26.6048541 C21.8145194,26.6048541 21.5514399,26.627998 21.1380293,26.627998 Z" id="Path" stroke-width="0.5" fill="#FFFFFF" fill-rule="nonzero"></path>
                </g>
                <g id="YogaRuka" fill-rule="nonzero">
                    <use fill="#000000" xlink:href="#path-1"></use>
                    <use fill="#FFFFFF" xlink:href="#path-1"></use>
                </g>
            </g>
        </g>
    </g>
</svg>