<svg xmlns="http://www.w3.org/2000/svg" width="108" height="32" viewBox="0 0 108 32">
  <g fill="none" fill-rule="evenodd">
    <g stroke="#FFF">
      <path d="M15.8337662,31.465368 C15.9486678,31.465368 15.9980692,31.465095 16.0581557,31.4637598 C16.1334653,31.4620862 16.1989313,31.458831 16.311787,31.4515645 C19.1732329,31.4917722 21.6800054,30.8391214 23.985587,29.4584533 C27.0761091,27.6081624 29.2572821,24.8433191 30.4661406,21.2368911 C32.3924167,15.4850037 31.5036327,10.2090305 27.9269661,5.95009019 L27.9102599,5.93336076 C25.8335529,3.82272062 24.4034344,2.74595825 22.4037256,1.77988251 C20.7204667,0.964761059 18.2065131,0.494195823 15.7103067,0.534565734 C12.9294959,0.579855813 10.3590325,1.19123627 8.33725627,2.5994541 C5.80084264,4.26910767 3.66581425,6.2809289 2.3677853,8.58535824 C0.678796532,11.5746003 0.165142296,14.9802435 0.805236722,19.022968 C1.3308949,22.2634178 3.67710458,25.943821 6.82281746,28.4118146 L6.76893575,28.3669548 C9.54823605,30.3742272 12.7498497,31.465368 15.8337662,31.465368 Z"/>
      <path fill="#FFF" stroke-width=".5" d="M21.1380293,26.627998 C20.2585922,26.627998 18.717698,26.5277079 17.1016383,25.9336823 C16.9663403,25.87968 16.8911747,25.7253876 16.9437906,25.5865245 C16.9964065,25.4476613 17.1467377,25.3705151 17.2820357,25.4245175 C19.5971352,26.2731255 21.822036,26.0648308 21.8445856,26.0648308 C21.8521022,26.0648308 21.8596188,26.0648308 21.8671353,26.0648308 C22.6037579,26.0648308 23.1599831,25.8565361 23.4681619,25.4708052 C23.7312414,25.1390766 23.8214401,24.6684848 23.7237248,24.1516054 C23.6560758,23.8738791 23.5057447,23.6655844 23.2501818,23.5267213 C21.9874002,22.8169764 18.6425325,23.8044476 16.0643535,24.7533456 C11.0658432,26.5971395 8.4049821,26.6897149 7.69842576,25.0465012 C7.69842576,25.0387865 7.6909092,25.0310719 7.6909092,25.0310719 C7.45037939,24.321327 7.63829331,23.8507353 7.8487569,23.5807236 C8.38243243,22.8709787 9.65273053,22.5855378 11.5093201,22.7552594 C13.8995851,22.9789834 15.5006117,22.9944126 16.0869031,22.3618139 C16.4025985,22.0223706 16.4777641,21.4669181 16.3424661,20.5025908 C16.2297177,19.9008505 16.0944197,19.3685418 15.9666382,18.859377 C15.6208766,17.463031 15.342764,16.3598406 15.801274,15.2875086 C16.53038,13.4437147 18.4846848,12.325095 19.7775325,11.5844916 L19.8075988,11.5690624 C19.8075988,11.5690624 19.8151153,11.5690624 19.8151153,11.5613478 C19.8902809,11.5227747 19.972963,11.476487 20.0706782,11.4301992 C20.7622015,11.0753268 22.3932943,10.2575772 22.5060426,9.47840072 C22.5361089,9.27010602 22.4534267,9.07724055 22.2429632,8.86894585 C21.7619035,8.45235644 20.8448836,8.15148632 19.9504133,7.85061619 C19.3340557,7.64232149 18.7477642,7.44945602 18.3042874,7.21801746 C16.9513072,6.50827254 16.3349495,5.72138144 16.0568369,4.89591725 C15.5908104,6.15340009 14.5535256,7.00972276 12.8623003,7.58060454 C12.8623003,7.58060454 12.8547837,7.58060454 12.8547837,7.58060454 C12.5541215,7.67317996 12.2684923,7.75032615 11.9828631,7.82747233 C10.9530949,8.1051986 10.0661412,8.34435178 9.6226643,8.96923589 C9.41220071,9.36268144 9.29945236,9.81784394 10.239022,10.5584473 C11.103426,11.1601876 11.9903797,11.6384939 13.3358434,12.3636681 L13.3884593,12.3945266 C14.2303136,12.8728329 14.9143203,13.0348399 15.4329627,12.8651183 C15.8313402,12.7416844 16.1545522,12.4176704 16.4176316,11.8776471 C16.6055456,11.4996308 16.7709098,11.0444683 16.9137244,10.5121596 C16.9663403,10.3192942 17.0114396,10.1341433 17.0415059,9.9644217 C17.191837,9.18524522 17.1392211,8.65293653 16.8836582,8.37521026 C16.665678,8.1437717 16.2673005,8.06662551 15.7035587,8.15920094 C15.207466,8.23634712 14.8992872,8.41378335 14.7790223,8.69150962 C14.6286911,9.03866746 14.6737905,9.78698547 15.7185919,11.3607677 C15.801274,11.4842016 15.7712078,11.6539232 15.6509428,11.738784 C15.5306779,11.8236448 15.3653137,11.7927863 15.2826316,11.6693524 C14.3205123,10.2190041 14.0048169,9.1775306 14.2979626,8.48321492 C14.4933931,8.02805242 14.93687,7.73489691 15.6208766,7.62689225 C16.3650157,7.51117297 16.9137244,7.63460687 17.259486,8.00490856 C17.650347,8.42149797 17.7405456,9.10038441 17.5526317,10.0724264 C17.5150489,10.2575772 17.4699496,10.4504427 17.4098171,10.6587374 C17.2519694,11.2219045 17.0715721,11.7079255 16.8761416,12.1168003 C16.5454131,12.7956867 16.1169694,13.2045615 15.5757773,13.3742831 C14.9068037,13.5825778 14.1025321,13.4205709 13.1253798,12.8574037 L13.0802804,12.8342598 C11.7197836,12.1013711 10.8177968,11.6153501 9.93084313,10.990466 C9.92332657,10.990466 9.92332657,10.9827514 9.91581002,10.9827514 C8.6830947,10.0107094 8.86349206,9.24696216 9.15663778,8.683795 C9.16415434,8.67608038 9.16415434,8.66836577 9.17167089,8.65293653 C9.7278961,7.85061619 10.7050485,7.58831916 11.8400486,7.28744903 C12.1181612,7.21030284 12.4037903,7.13315665 12.6894195,7.04829585 C14.8241216,6.3231217 15.7636912,5.17364352 15.8163071,3.19098653 C15.8238237,3.04440877 15.936572,2.92868949 16.0793866,2.92868949 C16.0793866,2.92868949 16.0793866,2.92868949 16.0793866,2.92868949 C16.2222012,2.92868949 16.3349495,3.04440877 16.3424661,3.19098653 C16.3650157,4.54875941 16.5378966,5.67509373 18.5297841,6.71656725 C18.9356782,6.92486195 19.4994199,7.11772742 20.1007445,7.3183075 C21.0403141,7.63460687 22.0099499,7.95862085 22.5736917,8.43692721 C22.5812082,8.43692721 22.5812082,8.44464182 22.5887248,8.45235644 C22.9269698,8.78408505 23.0697844,9.15438674 23.009652,9.54011767 C22.8668374,10.5121596 21.5288903,11.2604776 20.2886584,11.8930764 C20.1984597,11.9393641 20.1157776,11.9779372 20.040612,12.0165103 L20.0180623,12.0319395 C18.717698,12.7725429 16.9287575,13.7985872 16.2673005,15.4726594 C15.8839561,16.3829844 16.1244859,17.3550264 16.462731,18.7050846 C16.5905124,19.2065348 16.7258105,19.769702 16.8460754,20.3868715 C16.8460754,20.3945861 16.8460754,20.3945861 16.8460754,20.4023007 C17.0039231,21.5517789 16.8836582,22.2460946 16.4476979,22.7166863 C15.7110753,23.511292 14.0574328,23.5190067 11.441671,23.2798535 C9.81809478,23.1332757 8.65302847,23.3569997 8.24713441,23.897023 C8.06673704,24.1438908 8.03667082,24.4447609 8.16445228,24.8304918 C8.72819404,26.1111185 11.3214061,25.9105384 15.868923,24.2364662 C19.8226319,22.7784033 22.3106122,22.3926723 23.483195,23.0484149 C23.874056,23.2644242 24.1221024,23.5961528 24.2198176,24.0358861 C24.2198176,24.0358861 24.2198176,24.0436007 24.2198176,24.0436007 C24.3475991,24.7302018 24.2198176,25.3628005 23.8515063,25.817963 C23.5658772,26.1805501 22.9871023,26.6048541 21.8596188,26.6048541 C21.8145194,26.6048541 21.5514399,26.627998 21.1380293,26.627998 Z"/>
    </g>
    <text fill="#FFF" font-family="SwistblnkMoabhoers-Bold, Swistblnk Moabhoers " font-size="16" font-weight="bold">
      <tspan x="40" y="20">Yoga Ruka</tspan>
    </text>
  </g>
</svg>
