<svg width="16" height="16" viewBox="0 0 16 16" fill="none" xmlns="http://www.w3.org/2000/svg">
  <style>
    #outline,
    #person {
      fill: #1a1a1a;
    }
    @media (prefers-color-scheme: dark) {
      #outline,
      #person {
        fill: #fff;
      }
    }
  </style>
  <path d="M3.01042 14.2245C1.50459 12.9542 0.395987 11.1565 0.137582 9.56425C-0.193638 7.4732 0.0721552 5.71165 0.94613 4.16546C1.61781 2.97351 2.72259 1.93291 4.03507 1.0693C5.08125 0.340902 6.41135 0.0246688 7.8503 0.00124275C9.14195 -0.0196383 10.4429 0.223759 11.3139 0.645375C12.269 1.10663 12.9731 1.61667 13.9209 2.55108L14.1719 2.80239C16.0226 5.0053 16.4825 7.73425 15.4858 10.7094C14.8602 12.5748 13.7316 14.0049 12.1324 14.962C10.9394 15.6761 9.6422 16.0137 8.16155 15.9929L8.0303 15.9992L7.9142 16C6.42479 16 4.88232 15.5083 3.51399 14.5987L3.22353 14.3974L3.01042 14.2245ZM8.16228 0.501376L7.85844 0.501176C6.4296 0.524438 5.22863 0.847543 4.30991 1.48698C2.9844 2.35917 1.97913 3.35079 1.38141 4.4115C0.564803 5.85619 0.31752 7.50429 0.631125 9.48416C0.855967 10.8696 1.79996 12.4575 3.09382 13.6333L3.32571 13.8364L3.521 13.994L3.78952 14.1814C4.98485 14.9764 6.31805 15.4319 7.61525 15.4929L7.95766 15.5L8.16857 15.4929C9.55675 15.5124 10.7626 15.1992 11.8756 14.5329C13.3717 13.6376 14.4238 12.3036 15.0117 10.5506C15.9192 7.84176 15.5565 5.37607 13.9965 3.37613L13.8182 3.15584L13.8069 3.14448C12.7717 2.09279 12.0769 1.56909 11.096 1.09542C10.3657 0.74192 9.27524 0.520662 8.16228 0.501376Z" fill="#1A1A1A" id="outline" />
  <path d="M4.48299 4.25526L4.4679 4.28351L4.4879 4.25501L4.45458 4.32246C4.25307 4.7491 4.33001 5.12316 4.80449 5.52633L4.8769 5.58551L4.88772 5.5957L4.8994 5.60151L5.11933 5.75153L5.29459 5.86302L5.49078 5.98061L5.8098 6.16175L6.1108 6.32707L6.48072 6.5272L6.50557 6.53996C7.01232 6.8322 7.44954 6.9234 7.82492 6.8065C8.13285 6.70995 8.37182 6.47962 8.55033 6.11315C8.65372 5.8968 8.74587 5.64593 8.82516 5.3631C8.85381 5.26384 8.87741 5.16599 8.89871 5.06108C9.00039 4.5351 8.94788 4.15898 8.72076 3.91693C8.51654 3.69818 8.20194 3.62605 7.7911 3.68994C7.41194 3.74981 7.15116 3.91952 7.034 4.19228C6.86532 4.59186 7.03699 5.14997 7.53704 5.9038C7.61768 6.02414 7.77973 6.0546 7.89743 5.97153C8.01323 5.88981 8.04196 5.72872 7.96308 5.61087C7.53742 4.96969 7.42477 4.5787 7.50411 4.39543C7.54414 4.30304 7.66097 4.23576 7.87086 4.20313C8.11468 4.16309 8.27492 4.19285 8.35071 4.27332C8.44349 4.37414 8.4663 4.60404 8.39792 4.95854C8.39113 4.99674 8.3827 5.03723 8.37245 5.08101L8.33616 5.22322C8.26668 5.48218 8.18679 5.70208 8.09677 5.88323C7.97872 6.12551 7.84173 6.26286 7.67937 6.31315C7.45995 6.38493 7.15172 6.31347 6.75585 6.08857L6.73097 6.07399L6.07406 5.71623L5.83396 5.58109L5.63405 5.46401L5.46031 5.35664L5.29872 5.25066L5.19082 5.17666C4.84293 4.90215 4.80721 4.75713 4.92144 4.54359C5.02599 4.39754 5.19019 4.29571 5.49445 4.19041L5.67478 4.13234L5.92629 4.06083L6.36008 3.94156L6.46702 3.91003L6.61193 3.8586C7.27337 3.61181 7.72796 3.26926 7.99751 2.80605L8.0254 2.75451L8.03406 2.77189C8.23371 3.13652 8.57305 3.44644 9.09399 3.71971L9.13972 3.74303L9.23371 3.78739L9.33725 3.83128L9.52674 3.90302L9.77956 3.9911L10.2256 4.1427L10.4165 4.2112L10.5781 4.2735C10.6027 4.28348 10.6263 4.29327 10.6489 4.30293L10.7732 4.35956C10.8868 4.41519 10.97 4.46876 11.0395 4.52897C11.1125 4.60159 11.138 4.66063 11.1292 4.72133C11.1265 4.73979 11.1208 4.75954 11.1119 4.78055C11.0463 4.93503 10.8298 5.12033 10.5044 5.3172L10.3151 5.42673L10.1751 5.50201L9.78245 5.70459L9.7824 5.70901L9.53967 5.85156C8.61504 6.40409 8.11626 6.83858 7.82623 7.49726L7.78426 7.59779C7.6075 8.0111 7.60766 8.34445 7.76606 9.05615L7.8247 9.30803L7.96798 9.89274L8.003 10.0487L8.03352 10.1974C8.03844 10.2225 8.04332 10.248 8.04824 10.2743C8.11034 10.7178 8.07703 10.9612 7.95183 11.0958C7.83041 11.2268 7.59158 11.2984 7.18938 11.3172L7.00688 11.3221C6.94262 11.3226 6.8749 11.3221 6.80357 11.3206L6.57865 11.3128C6.53932 11.311 6.49906 11.3089 6.45784 11.3066L6.199 11.2897L5.7662 11.2532C4.79814 11.1647 4.1242 11.3165 3.82436 11.7152L3.78596 11.7691C3.65393 11.9724 3.61964 12.239 3.72695 12.5557L3.7314 12.5625L3.73427 12.5726C4.05754 13.3245 5.05284 13.4253 6.81988 12.9124L7.11321 12.8238C7.21325 12.7925 7.31556 12.7594 7.42016 12.7246L7.74083 12.6146C7.79542 12.5954 7.85059 12.5757 7.90634 12.5556L8.24357 12.4327L8.57183 12.3174C8.62559 12.299 8.67887 12.2811 8.73164 12.2635L9.04217 12.1631C9.09289 12.1473 9.14307 12.1318 9.19271 12.1168L9.48385 12.0323C10.4791 11.7551 11.2198 11.679 11.5637 11.8723C11.6592 11.9242 11.714 11.9974 11.7403 12.1054C11.7815 12.3243 11.7432 12.5226 11.636 12.6577C11.5213 12.8012 11.3134 12.8887 11.0305 12.9047L10.9075 12.9081L10.8744 12.9105C10.6675 12.9238 10.3999 12.9238 10.0834 12.8965C9.6071 12.8555 9.13278 12.7594 8.68393 12.5949C8.55346 12.5428 8.40562 12.6152 8.35492 12.749C8.30437 12.8822 8.37334 13.0307 8.50437 13.083C9.19861 13.3382 9.90638 13.439 10.5689 13.439L10.7429 13.4363L10.9297 13.4275C11.4508 13.4275 11.8094 13.2585 12.0238 12.9864C12.2307 12.7308 12.3032 12.3779 12.2327 11.9953C12.1753 11.7363 12.029 11.5403 11.802 11.4148C11.2696 11.1171 10.2819 11.2115 8.77925 11.6934L8.43683 11.8069C8.37834 11.8269 8.31914 11.8474 8.25922 11.8684L7.72322 12.0621L7.39883 12.1758L7.08963 12.2783L6.79567 12.3697C6.70023 12.3983 6.60734 12.425 6.51699 12.45L6.25362 12.5192C6.21101 12.5298 6.16903 12.54 6.1277 12.5497L5.88738 12.6025C4.91813 12.7999 4.35026 12.7141 4.19652 12.3649C4.14928 12.2205 4.15925 12.1114 4.22438 12.0223C4.38231 11.8122 4.8773 11.7067 5.5828 11.7544L6.01626 11.7907C6.06543 11.7946 6.11364 11.7982 6.1609 11.8016L6.43334 11.8187L6.68417 11.8294C7.56556 11.8566 8.03227 11.7487 8.31542 11.4433L8.36275 11.3881C8.55736 11.1417 8.61637 10.8038 8.56143 10.3027L8.5479 10.1935C8.50595 9.969 8.461 9.76369 8.40811 9.54544L8.29159 9.07322L8.24218 8.85609C8.23489 8.8223 8.22807 8.78965 8.22172 8.75807L8.18925 8.58071C8.13109 8.22134 8.15191 8.0148 8.24875 7.78487C8.48244 7.19346 8.91694 6.80646 9.7941 6.28529L10.0708 6.12457L10.0906 6.11155L10.1314 6.09257L10.2013 6.05774C11.1318 5.58315 11.5596 5.25629 11.6284 4.78823L11.636 4.71054C11.6432 4.53026 11.5768 4.35735 11.4431 4.20228L11.3954 4.15151C11.3886 4.13788 11.3831 4.13209 11.3664 4.12401C11.1959 3.97744 11.0037 3.87366 10.6654 3.74394L10.4656 3.6702L10.2323 3.58887L9.88888 3.47271L9.6499 3.38774L9.52352 3.33867L9.41623 3.29265L9.32183 3.24708C8.50696 2.821 8.31006 2.43292 8.29609 1.59342C8.28884 1.45025 8.17859 1.33936 8.03955 1.33936C7.90056 1.33936 7.79032 1.45027 7.78322 1.58911C7.75926 2.49073 7.35896 3.01713 6.41971 3.36491L6.30046 3.40687L5.88647 3.52329L5.63956 3.59083C4.98633 3.77648 4.71377 3.92237 4.48299 4.25526Z" fill="#1A1A1A" id="person" />
</svg>
