<svg xmlns="http://www.w3.org/2000/svg" xmlns:xlink="http://www.w3.org/1999/xlink" width="14" height="14" viewBox="0 0 14 14">
  <g fill="none" fill-rule="evenodd">
    <path fill="currentColor" d="M7,0 C3.79166667,0 1.16666667,2.625 1.16666667,5.83333333 C1.16666667,10.15 6.475,13.7666667 6.65,13.8833333 C6.76666667,13.9416667 6.88333333,14 7,14 C7.11666667,14 7.23333333,13.9416667 7.35,13.8833333 C7.525,13.7666667 12.8333333,10.15 12.8333333,5.83333333 C12.8333333,2.625 10.2083333,0 7,0 Z M7,12.7166667 C5.89166667,11.9 2.33333333,8.98333333 2.33333333,5.83333333 C2.33333333,3.26666667 4.43333333,1.16666667 7,1.16666667 C9.56666667,1.16666667 11.6666667,3.26666667 11.6666667,5.83333333 C11.6666667,8.98333333 8.10833333,11.9 7,12.7166667 Z M7,3.5 C5.71666667,3.5 4.66666667,4.55 4.66666667,5.83333333 C4.66666667,7.11666667 5.71666667,8.16666667 7,8.16666667 C8.28333333,8.16666667 9.33333333,7.11666667 9.33333333,5.83333333 C9.33333333,4.55 8.28333333,3.5 7,3.5 Z M7,7 C6.35833333,7 5.83333333,6.475 5.83333333,5.83333333 C5.83333333,5.19166667 6.35833333,4.66666667 7,4.66666667 C7.64166667,4.66666667 8.16666667,5.19166667 8.16666667,5.83333333 C8.16666667,6.475 7.64166667,7 7,7 Z"/>
  </g>
</svg>
