<svg xmlns="http://www.w3.org/2000/svg" xmlns:xlink="http://www.w3.org/1999/xlink" width="14" height="14" viewBox="0 0 14 14">
  <g fill="none" fill-rule="evenodd">
    <path fill="currentColor" d="M11.7912412,8.52173913 C11.2413906,8.46086957 10.69154,8.33913043 10.2027839,8.15652174 C9.53074422,7.91304348 8.79761005,8.09565217 8.24775942,8.5826087 L7.82009782,9.00869565 C6.72039657,8.27826087 5.74288434,7.36521739 5.00975017,6.20869565 L5.43741177,5.7826087 C5.92616788,5.29565217 6.10945142,4.50434783 5.86507337,3.83478261 C5.68178982,3.34782609 5.5596008,2.8 5.49850628,2.25217391 C5.37631725,1.33913043 4.58208857,0.669565217 3.66567085,0.669565217 C3.66567085,0.669565217 3.66567085,0.669565217 3.66567085,0.669565217 L1.83283543,0.669565217 C1.77174091,0.669565217 1.7106464,0.669565217 1.64955188,0.669565217 C1.16079577,0.730434783 0.733134171,0.973913043 0.4276616,1.33913043 C0.122189028,1.70434783 0,2.19130435 0,2.67826087 C0.183283543,4.62608696 0.916417713,6.57391304 1.95502446,8.2173913 C2.93253668,9.73913043 4.276616,11.0782609 5.80397885,12.0521739 C7.45353074,13.1478261 9.40855519,13.8173913 11.3635796,14 C11.4246742,14 11.4857687,14 11.5468632,14 C11.5468632,14 11.5468632,14 11.5468632,14 C12.0356193,14 12.5243754,13.8173913 12.829848,13.4521739 C13.1353206,13.0869565 13.3796986,12.6608696 13.3796986,12.173913 L13.3796986,10.3478261 C13.3796986,9.43478261 12.707659,8.64347826 11.7912412,8.52173913 Z M12.1578083,10.3478261 L12.1578083,12.173913 C12.1578083,12.3565217 12.0967138,12.4782609 11.9745248,12.6 C11.8523358,12.7217391 11.7301467,12.7826087 11.4857687,12.7826087 C9.71402776,12.6 8.00338136,11.9913043 6.47601851,11.0173913 C5.07084468,10.1652174 3.91004891,8.94782609 2.9936312,7.54782609 C2.01611897,6.02608696 1.40517383,4.32173913 1.22189028,2.55652174 C1.22189028,2.37391304 1.2829848,2.25217391 1.34407931,2.13043478 C1.46626834,2.00869565 1.64955188,1.88695652 1.83283543,1.88695652 L3.66567085,1.88695652 C3.66567085,1.88695652 3.66567085,1.88695652 3.66567085,1.88695652 C3.97114343,1.88695652 4.21552148,2.13043478 4.276616,2.43478261 C4.33771051,3.04347826 4.52099405,3.71304348 4.76537211,4.26086957 C4.82646662,4.50434783 4.76537211,4.74782609 4.64318308,4.93043478 L3.8489544,5.66086957 C3.66567085,5.84347826 3.60457634,6.14782609 3.72676537,6.39130435 C4.64318308,8.03478261 5.98726239,9.37391304 7.63681428,10.2869565 C7.88119234,10.4086957 8.18666491,10.4086957 8.36994845,10.1652174 L9.16417713,9.37391304 C9.34746068,9.19130435 9.59183873,9.13043478 9.83621679,9.25217391 C10.4471619,9.49565217 11.0581071,9.6173913 11.6690522,9.73913043 C11.9134303,9.8 12.1578083,10.0434783 12.1578083,10.3478261 C12.1578083,10.3478261 12.1578083,10.3478261 12.1578083,10.3478261 Z M8.43104296,3.71304348 C8.12557039,3.65217391 7.88119234,3.34782609 7.94228685,2.9826087 C8.00338136,2.67826087 8.30885394,2.43478261 8.67542102,2.49565217 C10.1416894,2.8 11.3024851,3.89565217 11.5468632,5.35652174 C11.6079577,5.66086957 11.4246742,6.02608696 11.0581071,6.08695652 C10.9970126,6.08695652 10.9970126,6.08695652 10.935918,6.08695652 C10.6304455,6.08695652 10.3860674,5.90434783 10.3249729,5.6 C10.1416894,4.62608696 9.40855519,3.89565217 8.43104296,3.71304348 Z M13.9906438,5.4173913 C14.0517383,5.72173913 13.8073602,6.02608696 13.4407931,6.08695652 C13.4407931,6.08695652 13.3796986,6.08695652 13.3796986,6.08695652 C13.074226,6.08695652 12.829848,5.84347826 12.7687535,5.53913043 C12.5243754,3.28695652 10.7526345,1.52173913 8.43104296,1.2173913 C8.12557039,1.15652174 7.88119234,0.852173913 7.88119234,0.547826087 C7.88119234,0.243478261 8.24775942,0 8.55323199,0 C11.4246742,0.365217391 13.6851712,2.6173913 13.9906438,5.4173913 Z"/>
  </g>
</svg>
