<?xml version="1.0" encoding="utf-8"?>
<!-- Generator: Adobe Illustrator 19.1.0, SVG Export Plug-In . SVG Version: 6.00 Build 0)  -->
<svg version="1.1" xmlns="http://www.w3.org/2000/svg" xmlns:xlink="http://www.w3.org/1999/xlink" x="0px" y="0px"
	 viewBox="488 600 512 512" style="enable-background:new 488 600 512 512;" xml:space="preserve">
<style type="text/css">
	.st0{fill:#FFFFFF;}
	.st1{display:none;}
	.st2{display:inline;}
</style>
<g id="Layer_1">
	<path class="st0" d="M741.6,1086.5c-46,0-93.7-16.2-135.1-46.1l-0.1-0.1c-46.1-36.1-81-90.8-88.9-139.5
		c-9.5-60-1.8-110.8,23.4-155.4c22.7-40.3,60.7-70.6,88.5-88.9C665,631.7,709,626,739.7,625.5c37.1-0.6,74.5,6.4,99.9,18.7
		c29.6,14.3,50.9,30.3,81.5,61.4l0.2,0.2c53.7,63.9,67,142.7,38.4,228.1c-18,53.7-50.6,95-96.7,122.6
		c-34.4,20.6-71.9,30.4-114.6,29.8C746.1,1086.5,743.9,1086.5,741.6,1086.5z M610.6,1034.8c42.2,30.4,91,46.3,137.6,44.6l0.1,0
		l0.1,0c41.4,0.6,77.7-8.9,111-28.8c44.7-26.8,76.2-66.8,93.7-118.9c27.8-82.9,15-159.4-37-221.2c-29.9-30.4-50.7-46-79.5-59.9
		c-24.5-11.8-60.7-18.5-96.8-18c-42,0.6-79.8,11.2-106.5,29.7c-27.3,18-64.3,47.5-86.3,86.6c-24.4,43.2-31.8,92.6-22.6,150.9
		C531.9,946,566.6,1000.2,610.6,1034.8z"/>
	<g class="st1">
		<path class="st2" d="M614.1,717.9c0.1,0.3,0.2,0.7,0.1,0.8c0.6,1.6,2,7.1,2.6,9.6l0.1,1.1l0-0.3l0.1,0.6c0.1,2,1,3.8,2.1,5.5
			c2.3,2.3,4.4,4.9,4.7,5.3l-0.1-0.1c0.5,0.6,2,2.1,2.7,2.5c0.4,0.3,2.6,1.9,2.1,3.6c-0.6,2-2,3.2-3.3,3.1c-1.5,0-2.6-1.1-3.1-1.7
			c0-0.2-0.7-0.8-1-0.9c0,0-0.1-0.1-0.3-0.4c-0.2-0.2-0.2-0.3-0.5-0.6l-1.5-1.5c-0.1-0.1-0.3-0.3-0.8-0.6l0.1,0.1
			c-0.3-0.2-1.2-0.8-1.4-1.3s-0.5-0.7-0.8-1l-0.6-0.6c-0.7-0.7-1-0.9-1.8-1.2c-0.8-0.5-1.9-1-3.1-1.1l-0.2-0.2c0,0-6.8-1.9-7.5-1.9
			c-0.2,0-0.9-0.3-1.1-0.3c-2.1-0.6-3.6-0.7-4.3-0.8c-0.2-0.2-0.3-0.2-0.4-0.2c-0.7-0.3-2.5-0.8-3.6-1l-0.8-0.3l0.2,0.1
			c-1.3-0.2-4.2-1.4-2.2-4.8c0.7-1.3,1.7-1.3,2.7-1.3c0.8-0.1,2.5,0.4,3,0.5l2.3,0.6c0.3,0,0.7,0.1,0.8,0.1c0.1,0.1,3.1,1.2,3.8,1.3
			l1.5,0.2l1.2,0.1l0.1,0.1c1.4,0.4,2.3,0,3-0.7c0.8-0.8,1.1-1.9,0.9-2.8l-0.1-0.1c-0.2-0.8-1.4-5.1-1.7-5.9
			c-0.2-0.5-0.3-0.9-0.3-1.2c-0.1-0.2,0-0.4,0-0.6c-0.2-0.6-0.6-1.7-0.6-2.4c-0.3-1-1.3-3.9,0.9-5.6c1.3-0.9,2.7-0.5,2.7-0.5
			c0.5,0.2,1.6,1.2,1.8,2.4C613,714.8,613.6,716.7,614.1,717.9z"/>
		<path class="st2" d="M625.2,711.9l0-0.4c-0.2-0.5-0.3-1-0.3-1.6c0-0.3,0-0.4,0-0.8l0.2-2.2l0.1-1l-0.1,0.1c0-1.2-0.1-2.1,0.8-3.5
			c0-0.3,0.1-0.4,0.2-0.4l0,0.1l0.2-0.7l0.4-0.9c0.3-0.5,0.7-1.2,1.1-2l0.5-0.5l-0.3,0.3l0.6-0.9l2.3-2.3l-0.1,0
			c1-1,2.2-1.9,3.4-2.5c0.8-0.5,1.7-0.7,2.7-0.9c0.5-0.1,0.8-0.2,1.1-0.3l0.7,0l-0.1-0.1l0.5,0c0.1,0,0.2-0.1,0.2-0.1
			c0.9-0.1,1.9,0,3,0.1l0.8,0.1l0.9,0.2l0.9,0.1l0.4,0.3l-0.2-0.1l-0.2-0.1c0.1,0.1,0.3,0.1,0.2,0.1l0.5,0l0.4,0.1
			c0.3,0.1,0.6,0,1.1,0.3c0.7-0.1,1.2,0.2,1.6,0.5c0.7,0.3,1.2,0.7,1.6,0.9c0,0.1,0.1,0.1,0.2,0.1l0.3,0.3c0.3,0,0.5,0.1,0.7,0.4
			c0.1,0.1,0.2,0.1,0.3,0.3c0.6,0.4,1.4,1,2,1.5c0.1,0.1,0.1,0.2,0.2,0.2c0.3,0.2,0.4,0.3,0.6,0.5l0.4,0.3c0.4,0.4,1.1,1,1.5,1.5
			c3.5,5.1,4.2,8.4,4.3,9.7c0.1,0.2,0.2,0.3,0,0.7c0,0.1,0.1,0.3,0.1,0.4c0.3,1.1,0.6,2,0.1,3.3c-0.4,1-0.5,2.2-0.5,3.4
			c-0.2,0.3-0.3,0.6-0.4,1.1l0-0.2l-0.2,0.7l-0.2,0.7c-0.1,0.9-0.8,1.9-1.5,2.8l-0.9,1.4l-0.2,0.1l0.2-0.2c-0.1,0.4-0.4,0.7-0.7,1
			c-0.1,0.2-0.5,0.5-0.8,0.7c-0.1,0.1-0.1,0.1-0.3,0.3c-0.1,0.2-0.2,0.1-0.4,0.3c-0.1,0.2-0.4,0.4-0.6,0.5l-1.8,1.3
			c-0.6,0.4-1.5,1.1-2.2,1.5l-0.3,0.2c-1.9,0.9-4.3,1.3-6.8,0.8l-0.3,0c-0.1,0-0.9-0.1-1.3-0.1l-1.1-0.1l-1-0.2
			c-1-0.2-2.3-0.3-3.1-1.1c-0.1-0.3-0.9-0.7-1.3-0.9c-0.2,0-0.3-0.1-0.3-0.2c-0.7-0.3-1.4-0.9-1.9-1.3c0-0.1-0.1-0.2-0.2-0.3
			c-0.5-0.6-2.1-2.4-2.7-3.2l-2-2.8c0-0.1-0.2-0.2-0.2-0.2C626.2,717.2,625.6,714,625.2,711.9z M631.3,707.5l-0.1-0.1
			C631.2,707.4,631.3,707.5,631.3,707.5z M634.6,717.7c0.4,0.7,2.9,3.6,4,4.2c0.2,0,0.6,0.4,0.9,0.5l-0.4-0.1l0.7,0.3l0.4,0.2
			l0.5,0.1c1.2,0.3,3.3,0.2,3.9,0.2c0.4,0.2,2.7-0.2,2.9-0.3l-0.1,0.1c-0.1,0,0.6-0.3,0.9-0.4c0.8-0.3,1.7-0.8,2.4-1.6
			c0.1,0,0.2-0.2,0.3-0.3c0.7-0.9,2.1-2.6,2.2-3.4l0,0.4c0,0.2,0.2-0.7,0.2-1.1l0-0.1l-0.1,0.1c0-0.4,0.2-0.9,0.4-1.4
			c0.5-1.9,1-5.3-0.3-8.7c-1.1-1.4-3.9-4.8-5-5.6c-1.4-1.1-2.5-1.8-3.2-2.1c-0.7-0.3-3.2-0.7-4.4-0.9c-0.7,0.1-3.2,0.6-4.3,1.2
			c-0.4,0.1-0.7,0.4-1,0.9l-0.1,0c-0.3,0.4-0.8,0.8-1.1,1.1c-0.7,0.6-1.4,1.2-1.7,2.3c-0.2,0.2-0.6,1.1-0.4,0.7l0.1,0
			c-0.4,0.7-0.7,1.4-0.8,1.8c0.1,0.2,0.1,0.6-0.2,1.2c0,0.2,0,0.4,0.2,0.7l-0.1-0.1c0.1,0.2,0.1,0.5,0,0.8c-0.1,0.9,0.9,5.2,1.1,5.6
			c0.3,0.8,0.7,1.7,1.1,2.3L634.6,717.7z M647.1,692.6c-0.1,0-0.1,0-0.1,0L647.1,692.6z M650.7,694.3c0.1,0.1,0.2,0.1,0.2,0.1
			L650.7,694.3z"/>
		<path class="st2" d="M693.7,681.3c0.8,0.6,1.3,1.3,1.5,1.4c0.4,0.6,0.9,1.8,1.3,2.8c0.6,1.5,1.2,3.2,1.4,4.1
			c0.4,1.5,0.8,6-2.3,10.7l0-0.1c0,0.1-1,1.7-2,2.6c-1.2,1.3-3.4,2.8-5.1,3.4c-2.2,0.9-4.9,1.4-5.7,1.3l-0.1,0c-0.5,0-1-0.2-1.3-0.1
			c-0.1,0.1-0.2,0-0.2,0l-0.7-0.1c0,0-0.6-0.3-0.7-0.3c-1.2-0.2-2.6-0.4-3.4-0.5c0,0-0.4-0.3-0.5-0.4l-0.4-0.2l0,0.1
			c-1.2-0.5-3.1-1.1-4.7-2.4c-0.4-0.3-1.9-1.4-2.9-3.4l-0.1-0.3c-0.2-0.3-0.2-0.3-0.3-0.5l0-0.1c-0.2-0.1-0.3-0.3-0.4-0.5
			c-0.3-0.6-0.5-1-1-1.7l0,0.1c-0.6-1-2.2-4.1-2.3-5.4c0,0.1,0-0.1-0.1-0.2c-0.1-0.2-0.1-0.3-0.2-0.4s0-0.3-0.1-0.4l0-0.7
			c-0.1-0.3-0.2-0.7-0.2-1l-0.3-1.3c0.1-0.4,0.2-1.2,0.2-1.7c0.2-2.1,0.3-4.9,0.8-5.8l-0.1,0.1c0.4-1.9,4.3-7.5,6.6-8.9l-0.1,0
			l2.7-1.7c0.1-0.1,0.5-0.3,0.5-0.3c1-0.4,2.9-1.1,3.4-1.2l0.7,0.1l-0.1,0c0.5,0,0.9-0.1,1.4-0.1l0.7-0.1c0.3,0,0.9,0,1,0l-0.1,0
			c1.7,0,3.8,0.6,5.1,1.4l-0.1,0l0.3,0.1l1.1,0.3l0.3,0.2l-0.1-0.1c0.4,0.1,0.7,0.2,1,0.4c0.2,0.2,0.4,0.3,0.5,0.4
			c-0.2-0.2,0.2,0.1,0.4,0.2l-0.2,0c0.5,0.3,1.9,2.1,1.4,3.5l0-0.1c-0.6,1.8-1.7,2.7-3.6,2.4l0.1,0c-1.3-0.1-2.4-0.8-3.3-1.3
			c-0.8-0.5-1.7-0.6-2.3-0.6l0.1,0c-0.9,0.1-0.7-0.1-0.9-0.1l0.4,0c-0.2,0-0.3,0-0.3,0c-0.9-0.1-1.9,0.1-2.8,0.4
			c-0.1,0.1-0.6,0.1-0.8,0.1l-0.4,0.2c-0.5,0.2-0.9,0.3-1.2,0.6l-0.7,0.4l0.2-0.1c-1.6,1.2-3.2,2.3-3.9,4.6c-1.2,2-1.2,2.7-1.3,3.7
			l0-0.1l-0.1,1.9c0.1,0.4,0.2,1.1,0.3,2.5c0.1,0.1,0,0.2,0,0.5l0-0.1l0.1,0.6c0,0.3,0.3,1,0.4,1.1l0.2,0.6c0.1,0.2,0.2,0.2,0.3,0.5
			c0.2,0.3,0.4,0.7,0.5,1.1c0.2,0.7,0.7,1.6,1,2.1c0,0.1,0.2,0.3,0.2,0.3c0.6,0.8,1.8,2.7,2.3,3c0.6,0.5,0.7,0.5,0.9,0.6l1,0.4
			c0.3,0.2,1.1,0.5,1.4,0.6c0.3,0.1,0.8,0.3,1.7,0.7l0,0.1l1.1,0.2c0.1,0,0.3,0,0.4,0c0.5,0,2.1,0,2.1,0c0.2,0,0.5-0.1,1-0.2
			c0.3-0.1,0.7-0.3,1-0.3c0.3,0,0.5-0.1,0.6-0.1l0.3-0.1c1.8-0.7,3.5-3,4.7-5.1c0.8-1.4,0.8-3.5,0.2-5.1c-0.7-1.7-2.2-2.9-4.1-2.4
			c-0.7,0.2-1.8,0.6-2.1,0.7c-0.8,0.5-1.2,0.6-2.4-0.1l0.1,0c-1.4-0.6-2.5-4.3,0.4-5.6c0.6-0.2,2.9-1.3,5.3-1.9
			c0.6-0.2,0.9-0.4,1.2-0.4C691,680.7,692.6,680.4,693.7,681.3z M681.3,707.5L681.3,707.5L681.3,707.5z"/>
		<path class="st2" d="M736.9,694.3c-0.1,0.7-1.4,1.5-2.9,1.8c-1,0.2-2.5-0.2-3.1-1c-0.3-0.2-0.7-1.2-0.8-1.8c0,0-0.1-0.1-0.1-0.1
			c0-0.1-0.1-0.3-0.1-0.5c-0.1,0-0.1-0.1-0.2-0.2c-0.3-0.4-0.6-1.1-0.7-1.3l0.1,0.1c-0.8-1.9-2.5-2.9-3.4-3.2l0.1,0l-2.8-0.4l0.1,0
			c-1.2-0.2-1.8-0.2-2.2-0.3c-0.7-0.2-1.2-0.3-2.5-0.4c-3-0.5-5,1.4-5.7,3.6c0,1-0.2,1.7-0.6,2.8c-0.1,1.1-0.6,3.9-0.9,4.6
			c-0.5,0.7-1.3,1.2-2.3,1.3c-1.2,0.1-2-0.1-2.8-0.3l-0.5-0.7c-0.9-1.4,0-3.8,0-3.9c0.1-0.2,0.1-0.2,0.1-0.5
			c0.2-0.3,0.6-2.6,0.6-3.2c0-0.5,1.5-8.7,1.9-10.5c0-0.3,0-0.3,0.1-0.7c0.1-0.2,0.2-0.3,0.2-0.3c0.1-0.5,0.2-1.2,0.6-2.8
			c0-0.1,0-0.5,0.2-0.9l-0.1,0.2l0.3-1.8c0.3-1.6,0.9-4,1.2-6c0-0.2,0.3-0.9,0.3-1.1l0-0.1c0.2-0.5,0.2-0.6,0.3-0.9l-0.1,0.2
			l0.2-1.2l0.2-0.6l0,0.1c0.5-1.7,1.3-4.9,3.9-5.2l0.5-0.1c0.5-0.1,0.5-0.4,2.3,0c0.8,0.3,1,0.7,1.4,1.3c0.1,0.3,0.2,0.6,0.5,0.9
			l2.1,2.8l-0.1,0c0.4,0.5,0.7,0.9,0.9,1.2l0.2,0.1l0.5,0.8c0.1,0.1,0.1,0.4,0.3,0.6c0.6,1,1.9,3.3,3.7,7.2l0.1,0.1l0,0.1l0.5,0.8
			l0-0.1c0.2,0.2,0.6,1.1,1.4,2.7c0.7,1.4,4.3,9.4,4.5,10c0.2,0.6,1.1,2.2,1.3,2.4c0,0,0.6,0.8,0.8,1.2l0-0.1
			C736.9,691.4,737.5,692.8,736.9,694.3L736.9,694.3z M711.1,666.6C711.1,666.6,711.2,666.6,711.1,666.6L711.1,666.6z M723.9,679.3
			l0,0.2l-0.5-0.8l0-0.1l0,0.1c0-0.1,0-0.1-0.3-0.3c0,0-0.1-0.2-0.1-0.4l0,0.1l-0.3-0.8c0-0.1-0.1-0.2-0.2-0.4
			c-0.4-0.6-1-1.8-2.4-4.9c-0.6-0.9-1.6-1.7-2.2-1.6c-0.5,0.1-1.1,0.7-1.6,2.3c-0.2,0.4-0.2,1.2-0.4,1.9c-0.1,0.8-0.3,1.4-0.3,2.1
			l-0.3,1c0,0.2,0.1,0.3,0,0.6c0.2,1.3,1.2,2.6,2.4,2.9c0.9,0.3,1.7,0.6,1.9,0.6l-0.1,0l0.9,0l0.9,0.2c1.2,0.3,3.3-0.3,2.6-1.9
			L723.9,679.3z M723.4,678.7L723.4,678.7C723.5,678.8,723.4,678.8,723.4,678.7z"/>
		<path class="st2" d="M790.5,697.8c0,0.2,0,0.5,0.1,0.6c0.1,0.9,0.3,1.5-0.2,2.2l0.2-0.2c-0.6,1.4-2.2,1.8-3.4,1.6
			c-1.3-0.2-2.3-1-2.7-2.5l0,0.1l-0.8-3.1c-0.1-0.9-0.2-1.6-1.3-4.2c-0.5-2-3.3-4.6-5.5-4.1c-0.5,0.1-3.4,0.8-4.9,3
			c-0.1,0-0.1,0.1-0.1,0c-0.6,1-0.7,1.4-1.1,3.5c-0.1,0.4-0.1,1.1-0.4,1.7c0,0-0.1,0.4-0.3,0.6c-0.8,1.1-2.1,1.5-3.1,1.3
			c-1.3-0.2-2.5-1.6-2.7-2.5l0.5-2.6c0-0.7,0.2-1.6,0.3-2.3l0.1-0.5c0-0.5,0.2-1.5,0.3-2.2l0.3-1.5c0.1-0.3,0.2-1.2,0.5-2.2
			c0.5-1.7,1-4,1.1-5.2l0.2-1.2c0-0.2,0.2-0.4,0.2-0.7l0.3-1.6c0.1-0.6,0.1-1.1,0.3-1.7c0.2-0.9,0.5-2.2,0.6-3.1
			c0.1-0.7,0.1-1.1,0.2-1.6l0.3-1.4c0.2-1.4,0.8-4.5,1.1-5c0-0.1,0.1-0.4,0.2-0.6c0,0,0.1-0.2,0.1-0.3c0.2-0.4,0.2-1,1-1.6
			c1.4-1.3,4.1-1.4,5-1.2l1.8,0.3c1.5,0.2,3.3,0.5,4.1,0.8c0.4,0.1,1.4,0.3,1.7,0.4c4.2,0.9,9.4,3.6,10.4,9c0.2,2.6,0.1,4.7-0.5,6.8
			c-1.1,4-2.8,5.8-4.2,7.3c-0.9,0.9-1.6,1.8-1.8,3c-0.1,0.7-0.1,1.6,0.1,2.5c0.3,2.1,0.6,3.4,1.2,5.2L790.5,697.8L790.5,697.8z
			 M788.1,674.4c0.3-1.8-0.2-4-1.5-5.8c-0.6-0.6-1.5-1.1-2.3-1.4l-0.8-0.4c-0.7-0.1-1.4-0.3-2.1-0.4c-4.1-1.1-5.7,1.8-6.4,5.7
			c-0.2,1.3-0.3,2.5-0.5,3.9c-0.4,3.3,2.2,4.6,5.2,5.4C783,682.1,787.4,678.7,788.1,674.4z"/>
		<path class="st2" d="M805.2,681.9c0.3-0.9,0.8-1.7,1.2-2.4c0.1-0.3,0.4-0.8,0.6-1.1c0.2-0.2,0.4-0.6,0.5-0.9
			c0.1-0.2,0.1-0.5,0.2-0.7l1.8-4c0.1-0.1,0.2-0.4,0.4-0.6c0.4-0.9,0.6-1.2,0.7-1.4l0,0.1c0.1-0.1,0.2-0.3,0.3-0.5
			c0.3-0.5,1.4-1.3,2.3-1.3c0.3,0,2.6,0.3,3.5,2.1c0.4,0.7,0.3,1.7,0.1,2.2l-0.4,0.9c-0.2,0.4-0.4,1-0.4,1.1
			c-0.2,0.2-0.3,0.4-0.3,0.5c-0.1,0.3-0.3,0.4-0.4,0.7c-0.4,1-1.1,2.5-1.7,3.6c-0.7,1.3-1.4,2.7-1.8,3.9c-0.4,0.8-0.9,1.6-1.2,2.4
			c-0.5,1-1,2.4-1.6,3.6c-0.7,2.1-1.3,5.8-1.1,6.7c0,0.2,0.3,2.7,0.7,3.6l-0.1,0c1,1.8,2.6,3.5,4.4,4.4c1.2,0.5,2.5,0.6,3.8,0.3
			c3.4-1.4,6.2-6.9,7.6-10.1l0.7-1.5c0.3,0,1.6-3.1,2.7-5.2c0.5-1,0.9-1.9,1-2.1l1-2.1c0.2-0.9,0.6-1.9,0.9-2.5
			c0.6-1.3,1.3-2.1,2.1-2.4c1.2-0.7,3.2-0.1,3.6,0.2c0.9,0.5,1.5,1.9,1.4,2.9c-0.1,0.3-0.2,0.7-0.4,1c-0.1,0.3-0.3,0.8-0.5,1.2
			c-0.2,0.7-0.7,1.7-1,2.3l-0.6,1.4c-0.3,0.9-0.8,1.9-1.1,2.7c-0.2,0.5-0.6,1.1-0.9,1.7c-0.7,1.2-1.5,2.7-1.6,3.3
			c-0.3,0.8-0.7,1.6-1.1,2.1c-0.2,0.3-0.3,0.7-0.5,0.9c-0.2,0.3-0.3,0.5-0.4,0.8c-0.2,0.4-0.3,0.7-0.5,1.2c-0.2,0.4-0.4,1-0.5,1.4
			l-0.4,1c-1.4,2.3-3.4,5-5.6,6.4c-0.3,0.1-0.5,0.2-0.8,0.5l-0.4,0.2c-2.6,0.9-5.6,1.4-9.3,1.1c-0.1,0-0.2,0-0.3-0.1
			c0.1,0-0.1,0-0.1,0.1c-2.4-0.8-4.2-1.7-5.9-3.4c-1.8-1.8-2.9-3.7-3.5-4.8l-0.2-0.4c-0.4-0.5-0.7-1.4-0.7-2.1l-0.1-0.9l0.1,0
			c-0.2-0.5-0.3-0.9-0.3-1.5l0-1c0,0,0-0.1,0-0.2l0,0.2c0.2-2,0.5-5.6,1.3-8c0.2-0.6,0.6-1.6,1-2.5c0.3-0.8,0.8-1.8,1.1-2.4
			C804.5,683.7,805,682.4,805.2,681.9L805.2,681.9z"/>
		<path class="st2" d="M846.8,731.6l0.1-1.3c0-0.6,0.1-1.5,0-2.1c0,0,0-0.1,0-0.3c0.1-0.1,0.3-0.4,0.2-0.6c0-0.3-0.2-1.1-0.2-1.4
			c0-0.4,0.1-0.2,0.1-0.5l0.1,0.2l0-0.6c0.1-0.4,0.2-0.7,0.1-1.5c0.3-0.8,0.3-1.4,0.3-2.3c0-0.2,0-0.4-0.1-0.5
			c0.1-0.3,0.2-0.7,0.2-1.2l0-0.1c-0.1-0.6-0.1-1,0-1.6l0,0.1c0-0.3,0-0.6,0.1-0.8l0-0.3l-0.1-0.8c0.1-1.6-0.6-3.2-1.9-3.9
			c-0.1,0-0.2-0.1-0.3-0.1l0.1,0.1c-0.3-0.1-0.5-0.3-0.9-0.2l-0.2,0c-0.6-0.1-2.1-0.1-5,2.8c-0.3,0.3-1.1,1.3-1.9,2.4l-2.3,3
			c-0.1,0.1-1.4,2.1-3.4,2.4c-2.1-0.5-3.1-1.9-3.4-2.5c-0.1-0.3-0.2-1.4,0.5-2.7l1-1.3c0.3-0.4,0.5-0.8,1.1-1.5
			c0.2-0.3,0.5-0.6,0.7-0.9c0.4-0.5,0.8-1.1,1.1-1.4l0.5-0.6c0.2-0.2,0.5-0.5,0.6-0.7c0.5-0.7,1.3-1.6,1.9-2.2
			c0.2-0.2,0.5-0.5,0.6-0.7l1.5-2c0.1-0.1,0.8-0.9,1.3-1.6l1-1.4c0.3-0.4,0.9-1.1,1.6-2c1.6-2,3.9-4.9,3.8-5l1.3-1.7
			c0.2-0.2,0.4-0.5,0.5-0.8l0.6-0.8c0.3-0.4,0.6-0.7,0.8-1c0.2-0.3,0.6-1,2.1-1.7c0.7-0.1,1.9-0.1,2.8,0.6c1.1,0.8,1.2,1.6,1.4,2.3
			l-0.1,0c0.3,0.9-1.2,2.8-1.5,3.3l-0.3,0.4c-0.1,0.1-0.2,0.2-0.3,0.4c-0.1,0.3-0.3,0.6-0.5,0.7l-2.3,3c-0.6,1.2-0.4,2.3,0.5,3
			c0.7,0.5,1.8,0.9,3.2,0.9l0.7,0.1c0.2,0.1,0.1,0.1,0.3,0.1c0.3-0.1,0.8-0.2,1.2-0.2l-0.2,0.1c0.1,0,0.4-0.1,0.6-0.1l0.6,0l-0.1,0
			l0.8-0.2c0,0,0.6,0,0.9-0.1l-0.2,0l0.9-0.2l6.8-0.9l0.5-0.1l-0.2,0c0.6-0.2,1.2-0.4,2-0.2l-0.1,0c0.9,0.2,2.4,1,2.9,2.2
			c1,2.1-0.4,3.3-1.3,3.8c-0.3,0.4-0.5,0.3-1,0.4c-0.3,0-0.6,0-0.8,0.1c-0.6,0-1.7,0.3-2.1,0.3c-0.4,0.1-0.9,0.1-1.4,0.3l-1,0.3
			c-0.5,0-1.2,0.2-1.6,0.2l-0.5,0.1L862,710l-0.2,0c-0.3,0-0.7,0.2-1.1,0.4c-0.5,0.2-1,0.4-1.4,0.5c-1.6,0.2-2.9,1.3-3.6,2.3
			c-1,1.3-1.3,2.4-1.3,2.4l0-0.1l-0.1,0.6l-0.2,1l0-0.2l0,0.8l0,0.9c-0.1,0.2-0.1,0.3-0.1,0.5l0,0.5c0,0.6,0,1.3-0.1,1.9l-0.2,0.4
			l0.2-0.3c-0.1,0.4-0.2,0.7-0.1,1.3l-0.1,0c0,0,0.1,0.9,0.1,1.2l-0.2,0.5l0.1-0.3c0.1-0.2-0.1,0.7-0.1,0.9l0.1,1.2
			c-0.1,0.3-0.1,0.4,0,0.4l0,0.8l0,0.6l-0.1-0.2l0,0.5l0.1,0.8l0,0.6l-0.1-0.2c0,0.1,0.1,2.5,0,2.7l0-0.1c-0.1,0.3-0.2,0.7-0.1,1.1
			c0,0.8-1.6,2.7-3.5,2.4C848.7,735.8,847.2,734,846.8,731.6z"/>
		<path class="st2" d="M877.6,762c-0.7,0.3-2.1-0.3-3.1-1.4c-0.7-0.7-1.2-2.2-1-3.1c0-0.3,0.6-1.2,1-1.7c0,0,0-0.1,0.1-0.2
			c0.1,0,0.2-0.3,0.3-0.4c0-0.1,0-0.1,0.1-0.3c0.2-0.5,0.6-1.1,0.7-1.3l-0.1,0.2c1.1-1.7,1-3.8,0.7-4.6l0,0.1l-1.3-2.6l0,0.1
			c-0.6-1.1-0.8-1.6-0.9-2c-0.2-0.7-0.5-1.2-1.1-2.2c-1.3-2.7-4-3.4-6.2-2.7c-0.8,0.5-1.5,0.8-2.6,1.1c-0.9,0.5-3.6,1.7-4.3,1.9
			c-0.9,0-1.7-0.4-2.4-1.2c-0.8-0.9-1.1-1.7-1.3-2.5l0.3-0.8c0.6-1.6,3.1-2.1,3.3-2.2c0.2,0,0.3,0,0.4-0.2c0.4,0,2.4-1,3-1.4
			c0.4-0.3,8-3.7,9.7-4.4c0.2-0.2,0.2-0.2,0.6-0.3c0.2,0,0.3,0,0.4,0c0.4-0.2,1.1-0.5,2.7-1.1c0.1-0.1,0.4-0.3,0.8-0.3l-0.2,0
			l1.7-0.8c1.5-0.7,3.8-1.5,5.6-2.4c0.2-0.1,0.9-0.3,1.1-0.4l0.1,0c0.5-0.1,0.6-0.2,0.9-0.3l-0.2,0l1.1-0.5l0.6-0.2l-0.1,0
			c1.7-0.6,4.8-1.7,6.5,0.2l0.3,0.4c0.3,0.4,0.6,0.1,1.3,1.9c0.2,0.8,0,1.2-0.2,1.9c-0.2,0.3-0.3,0.5-0.5,0.9l-1.1,3.3l0-0.1
			c-0.1,0.6-0.3,1.1-0.5,1.5l0,0.2l-0.4,0.9c-0.1,0.2-0.2,0.3-0.3,0.6c-0.5,1-1.6,3.5-3.8,7.2l0,0.1l-0.1,0.1l-0.4,0.8l0.1,0
			c-0.1,0.3-0.5,1.1-1.4,2.7c-0.8,1.4-5.3,8.9-5.7,9.4c-0.3,0.5-1.2,2.2-1.3,2.4c0,0-0.4,0.9-0.6,1.3l0.1,0
			C879.9,760.3,879.2,761.6,877.6,762L877.6,762z M882.5,742.7l-0.2,0.1l0.4-0.8l0.1-0.1l-0.1,0c0.1,0,0.1-0.1,0.1-0.4
			c0,0,0.1-0.2,0.3-0.4l-0.1,0l0.5-0.7c0.1-0.1,0.1-0.2,0.2-0.4c0.2-0.6,0.9-1.8,2.7-4.8c0.4-1,0.5-2.3,0.1-2.7
			c-0.3-0.4-1.2-0.5-2.8,0c-0.4,0.1-1.1,0.5-1.8,0.8c-0.7,0.4-1.3,0.6-1.9,1l-1,0.4c-0.2,0.1-0.2,0.3-0.5,0.3c-1,1-1.4,2.5-1,3.6
			c0.3,0.9,0.5,1.7,0.6,1.9l-0.1-0.1l0.5,0.8l0.4,0.9c0.4,1.1,2.1,2.5,3.1,1.1L882.5,742.7z M882.8,742l0,0.1
			C882.7,742.1,882.7,742,882.8,742z M885.7,725c0,0,0,0.1,0.1,0L885.7,725z"/>
	</g>
	<g transform="matrix( 1, 0, 0, 1, 0,0) ">
		<g>
			<path class="st0" d="M812.2,1027.9c-11.7,0-32.2-1.3-53.7-9c-1.8-0.7-2.8-2.7-2.1-4.5s2.7-2.8,4.5-2.1c30.8,11,60.4,8.3,60.7,8.3
				c0.1,0,0.2,0,0.3,0c9.8,0,17.2-2.7,21.3-7.7c3.5-4.3,4.7-10.4,3.4-17.1c-0.9-3.6-2.9-6.3-6.3-8.1c-16.8-9.2-61.3,3.6-95.6,15.9
				c-66.5,23.9-101.9,25.1-111.3,3.8c0-0.1-0.1-0.2-0.1-0.2c-3.2-9.2-0.7-15.3,2.1-18.8c7.1-9.2,24-12.9,48.7-10.7
				c31.8,2.9,53.1,3.1,60.9-5.1c4.2-4.4,5.2-11.6,3.4-24.1c-1.5-7.8-3.3-14.7-5-21.3c-4.6-18.1-8.3-32.4-2.2-46.3
				c9.7-23.9,35.7-38.4,52.9-48l0.4-0.2c0,0,0.1,0,0.1-0.1c1-0.5,2.1-1.1,3.4-1.7c9.2-4.6,30.9-15.2,32.4-25.3
				c0.4-2.7-0.7-5.2-3.5-7.9c-6.4-5.4-18.6-9.3-30.5-13.2c-8.2-2.7-16-5.2-21.9-8.2c-18-9.2-26.2-19.4-29.9-30.1
				c-6.2,16.3-20,27.4-42.5,34.8c0,0-0.1,0-0.1,0c-4,1.2-7.8,2.2-11.6,3.2c-13.7,3.6-25.5,6.7-31.4,14.8c-2.8,5.1-4.3,11,8.2,20.6
				c11.5,7.8,23.3,14,41.2,23.4l0.7,0.4c11.2,6.2,20.3,8.3,27.2,6.1c5.3-1.6,9.6-5.8,13.1-12.8c2.5-4.9,4.7-10.8,6.6-17.7
				c0.7-2.5,1.3-4.9,1.7-7.1c2-10.1,1.3-17-2.1-20.6c-2.9-3-8.2-4-15.7-2.8c-6.6,1-10.7,3.3-12.3,6.9c-2,4.5-1.4,14.2,12.5,34.6
				c1.1,1.6,0.7,3.8-0.9,4.9c-1.6,1.1-3.8,0.7-4.9-0.9c-12.8-18.8-17-32.3-13.1-41.3c2.6-5.9,8.5-9.7,17.6-11.1
				c9.9-1.5,17.2,0.1,21.8,4.9c5.2,5.4,6.4,14.2,3.9,26.8c-0.5,2.4-1.1,4.9-1.9,7.6c-2.1,7.3-4.5,13.6-7.1,18.9
				c-4.4,8.8-10.1,14.1-17.3,16.3c-8.9,2.7-19.6,0.6-32.6-6.7l-0.6-0.3c-18.1-9.5-30.1-15.8-41.9-23.9c-0.1,0-0.1-0.1-0.2-0.1
				c-16.4-12.6-14-22.5-10.1-29.8c0.1-0.1,0.1-0.2,0.2-0.4c7.4-10.4,20.4-13.8,35.5-17.7c3.7-1,7.5-2,11.3-3.1
				c28.4-9.4,40.9-24.3,41.6-50c0.1-1.9,1.6-3.4,3.5-3.4c0,0,0,0,0,0c1.9,0,3.4,1.5,3.5,3.4c0.3,17.6,2.6,32.2,29.1,45.7
				c5.4,2.7,12.9,5.2,20.9,7.8c12.5,4.1,25.4,8.3,32.9,14.5c0.1,0,0.1,0.1,0.2,0.2c4.5,4.3,6.4,9.1,5.6,14.1
				c-1.9,12.6-19.7,22.3-36.2,30.5c-1.2,0.6-2.3,1.1-3.3,1.6l-0.3,0.2c-17.3,9.6-41.1,22.9-49.9,44.6c-5.1,11.8-1.9,24.4,2.6,41.9
				c1.7,6.5,3.5,13.8,5.1,21.8c0,0.1,0,0.1,0,0.2c2.1,14.9,0.5,23.9-5.3,30c-9.8,10.3-31.8,10.4-66.6,7.3c-21.6-1.9-37.1,1-42.5,8
				c-2.4,3.2-2.8,7.1-1.1,12.1c7.5,16.6,42,14,102.5-7.7c52.6-18.9,85.7-23.9,101.3-15.4c5.2,2.8,8.5,7.1,9.8,12.8c0,0,0,0.1,0,0.1
				c1.7,8.9,0,17.1-4.9,23c-3.8,4.7-11.5,10.2-26.5,10.2C821.2,1027.6,817.7,1027.9,812.2,1027.9z"/>
		</g>
	</g>
	<g id="jVps31.tif">
		<g>
			<path class="st0" d="M776.8,659.3c4.2,0.6,9,1.2,13.3,3.8c3.6,2.2,5.1,5.5,4.9,9.7c-0.3,4.2-1.5,8.1-4.7,11c-2.6,2.4-2,5.2-1.4,8
				c0.5,2.2,1.2,4.4,1.7,6.7c0.4,1.7-0.2,2.8-1.9,3.4c-1.4,0.4-3.1-0.1-3.8-1.6c-0.5-1-0.8-2.2-1.1-3.4c-0.5-1.8-0.9-3.6-1.7-5.3
				c-0.9-1.9-2.4-3.7-4.7-3.5c-2.5,0.2-4.7,1.3-5.8,3.9c-0.4,0.9-0.6,1.9-0.7,2.8c-0.3,2-1.9,3.6-3.6,3.4c-2-0.2-3.1-2.2-2.7-4.4
				c1.6-7.9,3.1-15.8,4.7-23.8c0.4-2.2,0.7-4.4,1.2-6.6C771.3,660.3,772.8,659.3,776.8,659.3z M774.3,676c0.5,1.1,0.8,2.6,1.6,3.4
				c1.8,1.7,5.1,2.7,7.6,1.2c3.2-1.8,5-5.8,4.6-8c-0.8-4.6-3.4-5.7-7.9-6.4c-1.9-0.3-3.4,0.7-4,2.4C775.5,670.9,775,673.4,774.3,676
				z"/>
			<path class="st0" d="M679.6,668.4c3.5-0.2,6.4,1.1,9.2,2.7c2.1,1.2,2.4,3.7,0.8,5.3c-1,1-3,1-4.8,0.1c-5.6-2.9-10.9-1.1-13.8,4.6
				c-2,3.9-1.6,7.5-0.1,11.3c0.5,1.2,1.1,2.3,1.7,3.5c2.2,4.2,6.1,5.5,10.5,5.5c4.5,0,8.6-4.3,8.5-8.8c0-3.8-2.4-5.4-5.9-4
				c-2.1,0.8-3.2,0.5-4-1.1c-0.8-1.9-0.3-3.4,1.7-4.3c2.2-0.9,4.5-1.6,6.8-2.4c2.4-0.8,4.1,0.4,5.1,2.2c3.9,7.3,4.4,13.9-2.8,20.6
				c-4.1,3.8-9.1,4.5-14.6,3.4c-8.9-1.8-12.6-8.4-14.4-16.2c-2-8.8,1.1-15.5,8.7-20.4C674.6,669,677.1,668.1,679.6,668.4z"/>
			<path class="st0" d="M625.1,709.4c-0.3-8.4,5.4-15.7,10.9-17.2c6.2-1.7,11.9-0.5,17,3.6c4.5,3.6,7.3,8.3,7.9,14
				c0.7,6.8-1.5,12.6-7.2,16.7c-2,1.4-3.8,3.1-6.5,3.2c-5.7,0.3-11.1-0.5-15-5.2c-1.6-1.9-3.2-3.7-4.6-5.7
				C625.6,715.6,625.4,711.9,625.1,709.4z M644.2,723c4.6,0.1,6.8-1.6,8.7-4.9c0.6-1,0.8-2.2,1.1-3.3c0.9-3.1,1.1-6.4-0.7-9
				c-1.7-2.4-4-4.6-6.4-6.3c-1.6-1.1-4-1.8-5.9-1.7c-5.4,0.3-9.1,5-9.3,9.9c-0.1,4.1,1.4,7.7,4,11
				C637.7,721.4,640.3,723.1,644.2,723z"/>
			<path class="st0" d="M855.7,704.5c3.5-0.6,7.5-1.1,11.5-1.8c1.7-0.3,3.5,0.2,4.3,1.6c0.4,0.8,0.7,2.1,0.3,2.8
				c-0.5,0.8-1.6,1.6-2.5,1.8c-3.5,0.8-7.2,1.3-10.7,2.1c-2.1,0.5-4.1,3.1-4.2,5.3c-0.3,5.3-0.6,10.6-0.8,16c0,1.5-0.6,2.6-1.8,3.2
				c-1.1,0.6-2.2,0.6-3.1-0.4c-1.3-1.4-2.2-3-1.6-5.1c0.2-0.9,0-1.8,0.1-2.8c0.1-4,0.4-8,0.4-12c0-3-2.7-4.6-5.1-2.8
				c-1.9,1.3-3.4,3.2-5,4.9c-1.3,1.3-2.4,2.8-3.7,4.1c-1.3,1.3-2.7,0.6-3.9-0.3c-1.3-1-1.7-2.3-0.8-3.7c1.5-2.2,3.1-4.2,4.7-6.3
				c4.2-5.4,8.5-10.8,12.8-16.2c1.1-1.4,2.2-2.9,3.4-4.2c1.1-1.2,3.1-1.4,4.3-0.5c1.4,1,1.7,2.7,0.7,4.3c-1.1,1.7-2.2,3.4-3.5,4.9
				c-1.9,2.1-1.3,4,1.8,4.7C853.7,704.5,854.5,704.5,855.7,704.5z"/>
			<path class="st0" d="M868.4,739.4c-1.5,0.6-3,1.2-4.5,1.8c-0.8,0.3-1.6,0.7-2.4,1.1c-2.4,0.9-4.5-0.1-5.1-2.7
				c-0.3-1.5,0.7-2.3,1.9-2.8c3.1-1.4,6.2-2.8,9.3-4.2c6.5-2.8,13-5.5,19.5-8.2c1.4-0.6,3-1,4.5-1.2c2.3-0.3,5.5,2.7,4.3,5.8
				c-2.2,6-5.2,11.4-8.1,17c-1.7,3.4-3.9,6.5-5.8,9.8c-0.7,1.1-1.2,2.3-1.7,3.5c-0.7,1.5-2.3,2.9-3.4,2.9c-1.5-0.1-3.4-1.8-3.5-3.5
				c-0.1-0.9,0.4-1.9,0.9-2.7c0.9-1.7,2.2-3.2,1.9-5.3c-0.1-0.8-0.3-1.6-0.6-2.3c-0.9-2-1.8-4-2.8-5.9
				C872,740.5,870.6,739.5,868.4,739.4z M885.4,732.2c-0.1-0.1-0.1-0.3-0.2-0.4c-2.3,1.3-4.7,2.4-6.9,3.8c-0.6,0.4-0.9,1.8-0.8,2.5
				c0.4,1.6,1,3.2,1.9,4.6c0.9,1.4,2,1.3,2.9-0.2c0.5-0.8,0.9-1.6,1.4-2.4c1.1-1.9,2.2-3.8,3.1-5.8
				C887.2,733.2,886.5,732.2,885.4,732.2z"/>
			<path class="st0" d="M737.5,692.9c-0.3,1.8-1.1,2.7-2.9,3.1c-1.7,0.4-3.3-0.2-4-1.6c-0.8-1.5-1.4-3.1-2.4-4.4
				c-0.8-0.9-2-1.7-3.2-1.9c-2.5-0.6-5.2-0.9-7.8-1.1c-2.2-0.1-3.8,1.3-4.3,3.5c-0.5,2.2-0.9,4.5-1.5,6.7c-0.4,1.6-1.8,2.1-4.2,1.9
				c-1.6-0.2-1.8-1.4-1.9-2.6c0-0.4,0-0.9,0.1-1.3c1.4-7,2.7-14,4.1-21c0.8-3.9,1.6-7.8,2.7-11.6c0.9-3.3,2.7-4.5,5.6-4.1
				c0.7,0.1,1.5,0.5,1.9,1c3.1,4.1,5.7,8.5,8,13.1c2.7,5.7,5.4,11.3,8.2,16.9C736.4,690.8,737,691.8,737.5,692.9z M722.1,682.1
				c1.3,0,2.4-0.9,2-1.8c-1.4-3-2.8-6-4.4-8.9c-0.9-1.6-2.4-1.4-3,0.4c-0.5,1.6-0.6,3.4-1,5.1c-0.4,2.1,0.3,3.6,2.3,4.3
				C719.4,681.6,720.8,681.8,722.1,682.1z"/>
			<path class="st0" d="M800.8,696.8c0.3-3.8,1-7.6,2.8-11.3c2.4-4.7,4.4-9.6,6.8-14.3c1.2-2.5,3.1-2.8,5.3-1.2c1.3,1,1.7,2.4,0.9,4
				c-1.4,2.9-2.9,5.6-4.1,8.5c-1.5,3.4-3.2,6.8-4,10.3c-1.2,5.2-0.3,8.8,4.2,11.3c2.2,1.2,4.6,1,6.2-0.9c1.9-2.3,3.6-4.8,5-7.5
				c2.4-4.8,4.5-9.7,6.8-14.6c1.1-2.4,2.4-3.1,4.6-2.6c2,0.4,3,2.2,2.1,4.1c-2.6,5.4-5.2,10.8-7.7,16.3c-1.2,2.6-2.3,5.2-4.2,7.4
				c-2.2,2.5-4.8,4.1-8.2,4.4c-3.5,0.4-7,0.4-9.9-1.9C803.4,706,800.7,702.2,800.8,696.8z"/>
			<path class="st0" d="M624.8,749.6c-0.5-0.4-1.6-0.9-2.4-1.7c-2.1-2-4.2-4.1-6.2-6.3c-2.1-2.1-4.8-2.8-7.5-3.5
				c-5.1-1.3-10.3-2.6-15.5-3.8c-2.1-0.5-3.3-1.8-3-3.4c0.5-2.3,2-3.3,4.2-2.8c2.7,0.6,5.4,1.4,8.1,2c1.5,0.4,3,0.7,4.6,0.8
				c2,0.2,3.5-1.8,3-3.8c-1-3.6-2-7.2-2.8-10.8c-0.3-1.2,0-2.6,0.4-3.8c0.4-1.2,1.6-1.8,2.8-1.4c0.9,0.3,2.1,1.1,2.3,1.8
				c1.6,5.5,3,11.1,4.4,16.7c0.5,2.1,1.1,4.1,2.5,5.7c2.6,2.7,5.3,5.4,7.9,8.1c0.9,0.9,1.6,2,1,3.4
				C628,748.4,627.2,749.5,624.8,749.6z"/>
		</g>
	</g>
</g>
<g id="Layer_2">
</g>
</svg>
