<svg xmlns="http://www.w3.org/2000/svg" width="288" height="288" viewBox="0 0 288 288">
  <path fill="#FFF" fill-rule="evenodd" d="M288,0 L288,288 L0,288 L0,0 L288,0 Z M203.594805,11.9688312 C187.761039,4.3012987 164.446753,-0.0623376623 141.319481,0.311688312 C122.181818,0.623376623 94.7532468,4.17662338 72.561039,19.6363636 C55.2311688,31.0441558 31.5428571,49.9324675 17.3922078,75.0545455 C1.68311688,102.857143 -3.11688312,134.524675 2.80519481,171.927273 C7.72987013,202.285714 29.4857143,236.384416 58.2233766,258.888312 L58.2233766,258.888312 L58.2857143,258.950649 C84.0935065,277.58961 113.828571,287.688312 142.503896,287.688312 C143.937662,287.688312 145.309091,287.688312 146.742857,287.563636 C173.361039,287.937662 196.737662,281.828571 218.181818,268.987013 C246.919481,251.781818 267.241558,226.036364 278.462338,192.561039 C296.290909,139.324675 288,90.2025974 254.524675,50.3688312 L254.524675,50.3688312 L254.4,50.2441558 C235.324675,30.8571429 222.046753,20.8831169 203.594805,11.9688312 Z"/>
</svg>
