<?xml version="1.0" encoding="utf-8"?>
<!-- Generator: Adobe Illustrator 20.0.0, SVG Export Plug-In . SVG Version: 6.00 Build 0)  -->
<svg version="1.2" baseProfile="tiny" id="Layer_1" xmlns="http://www.w3.org/2000/svg" xmlns:xlink="http://www.w3.org/1999/xlink"
	 x="0px" y="0px" viewBox="488 600 512 512" xml:space="preserve">
<rect x="612.1" y="643.4" display="none" fill="#DDDDDD" width="263.7" height="425.1"/>
<rect x="744" y="643.4" display="none" fill="#EDEDED" width="157.2" height="425.1"/>
<g transform="matrix( 1, 0, 0, 1, 0,0) " display="none">
	<g display="inline">
		
			<path id="Layer0_0_1_STROKES_1_" fill="none" stroke="#51DF00" stroke-width="15" stroke-linecap="round" stroke-linejoin="round" d="
			M733.5,643.7c0.1,1.2,0.2,2.4,0.2,3.5c2.1,38.6-14.7,62.8-50.4,72.5c-36.8,10-57.7,19.8-62.9,29.3c-5.1,9.5-0.9,21.3,12.8,35.4
			c35.1,30.6,63.3,46.9,84.4,49c15.5,1.5,28.1-7.4,37.9-26.8c3.6-7.1,6.8-15.6,9.6-25.6c1-3.6,1.9-7.1,2.5-10.3
			c6-29.8-4.2-42.6-30.4-38.6c-29.1,4.5-29.4,27.4-0.9,68.7 M745.3,643.4c-0.1,1.3-0.2,2.5-0.3,3.7c-2,38.5,14.8,62.6,50.4,72.3
			c36.8,10,57.9,21.8,63.4,35.2c5,12.4-5.1,26.2-30.3,41.4c-2,1.2-4.2,2.4-6.4,3.7c-24.4,13.6-42.4,29.8-54,48.7
			c-2.6,4.3-4.9,8.7-6.9,13.2c-10.7,24.7-12,57.4-3.9,98.3c8.1,40.9-24.2,57.5-97,50c-72.8-7.5-100.4,2.8-83,31
			c17.5,28.2,72.6,25.6,165.3-7.6c92.7-33.3,142.4-35.7,149-7.2c6.6,28.4-6.5,42.7-39.4,42.7c-32.9,0-71.6-8-116.3-24"/>
	</g>
</g>
<g transform="matrix( 1, 0, 0, 1, 0,0) ">
	<g>
		
			<path id="Layer0_0_1_STROKES" fill="none" stroke="#4D3C2F" stroke-width="18" stroke-linecap="round" stroke-linejoin="round" d="
			M764,1024.6c41.9,15,81.7,11.1,81.7,11.1c30.8,0,40.8-18.5,36.9-38.2c-6.2-26.7-52.8-24.4-139.8,6.8
			c-87,31.2-129.8,31.3-140.4,7.5c-8.6-24.3,15.3-36.8,61.9-32.6c78.2,7.2,95.4-0.4,89.4-43.6c-7.6-38.3-19.9-63.1-9.8-86.3
			c12.2-30.2,45.1-48.3,68-61.1c15.7-8,67.2-30.4,43.4-53.3c-15.1-12.7-51.2-19.3-69.7-28.8c-35.7-18.2-40.3-38.2-40.7-64.1
			c-1,36.1-19,57.1-57.8,69.9c-24.9,7.4-48.1,10.2-59,25.6c-4.8,8.9-6.5,19,12,33.3c15.5,10.5,31.1,18.7,55.5,31.5
			c33.7,18.8,50.1,7.5,59.2-10.7c3.4-6.7,6.4-14.7,9-24c1-3.4,1.7-6.6,2.4-9.6c5.6-27.9-3.9-40-28.5-36.2
			c-27.3,4.2-28,24.6-2.8,61.6"/>
	</g>
</g>
<g transform="matrix( 1, 0, 0, 1, 0,0) " display="none">
	<g display="inline">
		<path fill="#FF9901" d="M839,1074.6c-16.6,0-45.7-1.9-76-12.8c-3.9-1.4-5.9-5.7-4.5-9.6c1.4-3.9,5.7-5.9,9.6-4.5
			c42.4,15.2,83.4,11.5,83.8,11.4c0.2,0,0.5,0,0.7,0c12.9,0,22.5-3.4,27.8-9.8c4.4-5.4,5.9-13.1,4.2-21.8c-1-4.3-3.4-7.4-7.5-9.7
			c-12.5-6.8-45.5-8.5-131.6,22.4c-94.6,33.9-145.2,35.2-159,4c-0.1-0.2-0.1-0.4-0.2-0.5c-4.9-13.9-0.9-23.4,3.3-28.8
			c10.5-13.6,34.9-19.1,70.4-16c42.5,3.9,72.9,4.3,83-6.4c5.1-5.4,6.4-15.1,4.1-31.4c-2.1-10.8-4.6-20.4-7-29.6
			c-6.6-25.8-11.8-46.1-3-66.4c13.9-34.4,50.8-54.9,75.2-68.4l0.5-0.3c0.1,0,0.2-0.1,0.2-0.1c1.4-0.7,3-1.5,4.8-2.4
			c12.6-6.2,42-20.7,43.9-33.4c0.3-1.8,0.2-4.6-4-8.7c-8.6-7.1-26.2-12.9-41.7-17.9c-11.6-3.8-22.6-7.4-31-11.7
			c-22.7-11.6-34.5-24.3-40.7-37.6c-9.9,20.4-28.9,34.5-58.5,44.3c-0.1,0-0.1,0-0.2,0.1c-5.6,1.6-11,3.1-16.3,4.4
			c-18.6,4.9-34.6,9.1-42.4,19.6c-2.9,5.5-6.1,12.3,10.8,25.4c15.9,10.8,32.4,19.5,57.3,32.6l0.9,0.5c0.1,0,0.1,0.1,0.2,0.1
			c14.9,8.3,27,11.1,36,8.3c6.8-2.1,12.3-7.5,16.8-16.6c3.4-6.7,6.4-14.8,9.1-24.3c1-3.4,1.8-6.7,2.4-9.7
			c2.6-13.1,1.8-22.2-2.3-26.5c-3.4-3.6-10-4.6-19.6-3.1c-8.3,1.3-13.4,4-15.2,8.2c-2,4.7-2.5,16.9,17.2,45.9
			c2.3,3.4,1.4,8.1-2,10.4s-8.1,1.4-10.4-2c-18.6-27.4-24.5-46.6-18.6-60.3c4-9.2,13-14.9,26.6-17c14.7-2.3,25.8,0.3,32.8,7.6
			c7.9,8.2,9.9,21.2,6.1,39.8c-0.7,3.4-1.6,7.1-2.6,10.9c-2.9,10.3-6.3,19.4-10.1,26.9c-6.4,12.7-15.1,20.9-25.8,24.2
			c-13.2,4.1-28.7,0.9-47.6-9.5l-0.8-0.4c-25.5-13.4-42.3-22.2-59-33.6c-0.1-0.1-0.2-0.2-0.4-0.3c-18.9-14.5-23.6-28.8-14.8-45
			c0.1-0.3,0.3-0.5,0.5-0.8c10.8-15.3,30.4-20.4,51.1-25.8c5.1-1.3,10.4-2.7,15.7-4.3c38.5-12.7,55.4-32.9,56.4-67.6
			c0.1-4.1,3.4-7.3,7.5-7.3c4.1,0,7.4,3.3,7.5,7.4c0.4,24.6,3.4,43.4,39.3,61.7c7.3,3.8,17.8,7.2,28.8,10.8
			c17.7,5.8,36.1,11.7,46.9,20.8c0.1,0.1,0.2,0.2,0.4,0.3c8.7,8.3,9.5,16.5,8.6,22c-2.9,18.8-28.4,32.9-52.1,44.6
			c-1.7,0.8-3.2,1.6-4.5,2.2l-0.4,0.2c-23.9,13.3-56.7,31.5-68.6,61c0,0.1,0,0.1-0.1,0.2c-6.8,15.6-2.4,32.9,3.8,56.8
			c2.3,9.1,5,19.4,7.2,30.6c0,0.1,0.1,0.3,0.1,0.4c2.1,15.3,2.9,32.6-8.1,44.1c-14.5,15.2-44.7,15.6-95.2,10.9
			c-28.9-2.6-50.3,1.3-57.2,10.2c-1,1.3-4.2,5.4-1.1,14.3c9.8,21.3,58.3,17.1,140.1-12.3c36-12.9,66.1-21.4,89.4-25.1
			c24.9-4,42.7-2.8,54.4,3.6c7.9,4.3,13,10.9,15,19.5c0,0.1,0,0.2,0.1,0.3c2.6,13.2,0,25.4-7.3,34.3c-5.7,6.9-17.1,15.2-39,15.3
			C851.4,1074.2,846.4,1074.6,839,1074.6z"/>
	</g>
</g>
<path fill="none" stroke="#4D3C2F" stroke-width="18" stroke-miterlimit="10" d="M747.8,1102.2c-51.2,1.8-99.7-13.2-144.8-41.3
	c-57.9-36.1-89.7-89.9-100-155.3c-8.9-56.7-4.4-113.2,24.7-164.9c21.2-37.6,52.4-64.9,86.9-92c65.3-51.3,181.3-43,232.2-18.5
	c32.8,15.8,66,32.3,89.3,62.2c59.1,75.9,65.6,159.3,35.7,248.2c-18.7,55.7-52,99.7-102.5,130
	C832.7,1092.5,792.7,1102.8,747.8,1102.2z"/>
</svg>
