<?xml version="1.0" encoding="utf-8"?>
<!-- Generator: Adobe Illustrator 20.0.0, SVG Export Plug-In . SVG Version: 6.00 Build 0)  -->
<svg version="1.1" id="Layer_1" xmlns="http://www.w3.org/2000/svg" xmlns:xlink="http://www.w3.org/1999/xlink" x="0px" y="0px"
	 viewBox="0 0 1792 1792" style="enable-background:new 0 0 1792 1792;" xml:space="preserve">
<style type="text/css">
	.st0{fill:#FFFFFF;}
</style>
<path class="st0" d="M1781.9,347.4c-50.2,73.4-110.9,136-182.1,187.7c0.7,10.5,1.1,26.2,1.1,47.2c0,97.4-14.2,194.7-42.7,291.7
	s-71.8,190.2-129.8,279.4c-58.1,89.2-127.2,168.1-207.4,236.6c-80.2,68.6-176.9,123.3-290,164.1c-113.2,40.8-234.2,61.3-363.1,61.3
	c-203.1,0-389-54.3-557.6-163c26.2,3,55.5,4.5,87.7,4.5c168.6,0,318.9-51.7,450.8-155.1c-78.7-1.5-149.1-25.7-211.3-72.5
	S232.4,1122.7,209.1,1050c24.7,3.7,47.6,5.6,68.6,5.6c32.2,0,64.1-4.1,95.6-12.4c-83.9-17.2-153.5-59-208.5-125.3
	s-82.6-143.3-82.6-231v-4.5c51,28.5,105.7,43.8,164.1,46.1c-49.5-33-88.8-76.1-118-129.3S84.3,488.3,84.3,426.1
	c0-66,16.5-127,49.5-183.2c90.7,111.7,201,201,331.1,268.1s269.2,104.4,417.6,111.9c-6-28.5-9-56.2-9-83.2
	c0-100.4,35.4-186.1,106.2-256.9s156.5-106.2,256.9-106.2c104.9,0,193.4,38.2,265.3,114.7c81.7-15.7,158.5-45,230.5-87.7
	c-27.7,86.2-80.9,152.9-159.6,200.1C1642.5,396.1,1712.2,377.4,1781.9,347.4z"/>
</svg>
