<?xml version="1.0" encoding="utf-8"?>
<!-- Generator: Adobe Illustrator 20.0.0, SVG Export Plug-In . SVG Version: 6.00 Build 0)  -->
<svg version="1.1" id="Layer_1" xmlns="http://www.w3.org/2000/svg" xmlns:xlink="http://www.w3.org/1999/xlink" x="0px" y="0px"
	 viewBox="0 0 1792 1792" style="enable-background:new 0 0 1792 1792;" xml:space="preserve">
<style type="text/css">
	.st0{fill:#4D3C2F;}
</style>
<path class="st0" d="M1786.6,344.5c-50.5,73.8-111.5,136.7-183.1,188.7c0.8,10.5,1.1,26.4,1.1,47.5c0,97.9-14.3,195.7-42.9,293.3
	s-72.1,191.2-130.5,280.8c-58.4,89.7-127.9,169-208.5,237.9c-80.6,68.9-177.8,123.9-291.6,165s-235.4,61.6-365,61.6
	c-204.2,0-391-54.6-560.6-163.9c26.4,3,55.8,4.5,88.2,4.5c169.5,0,320.6-52,453.2-156c-79.1-1.5-149.9-25.8-212.5-72.9
	s-105.5-107.2-128.8-180.3c24.9,3.8,47.8,5.7,68.9,5.7c32.4,0,64.4-4.1,96.1-12.4c-84.4-17.3-154.3-59.3-209.6-126
	S77.8,773.9,77.8,685.8v-4.5c51.2,28.6,106.2,44.1,165,46.3c-49.7-33.2-89.3-76.5-118.7-130C94.7,544.1,80,486.1,80,423.6
	c0-66.3,16.6-127.7,49.7-184.2c91.2,112.3,202.1,202.1,332.8,269.5s270.7,104.9,419.9,112.5c-6-28.6-9-56.5-9-83.6
	c0-101,35.6-187,106.8-258.2s157.3-106.8,258.2-106.8c105.5,0,194.4,38.4,266.7,115.3c82.1-15.8,159.4-45.2,231.7-88.2
	c-27.9,86.6-81.4,153.7-160.5,201.2C1646.4,393.5,1716.5,374.6,1786.6,344.5z"/>
</svg>
